<svg xmlns="http://www.w3.org/2000/svg" width="1429.333" height="692" viewBox="0 0 1072 519" xmlns:v="https://vecta.io/nano"><g fill="#fff"><path d="M0 0h1072v519H0V0m284.28 36.77c-1.35 5.35-3.7 10.41-6.76 14.99l2.91 1.99c1.45-2.39 2.81-4.83 4.08-7.32l4.43-.12c.08 3.2-.04 6.41-.26 9.61-3.56.09-7.12.1-10.68.08v3.39l10.08-.01c-1.04 7.08-5.12 13.39-10.81 17.64l2.02 2.66c4.76-3.12 7.92-7.89 10.64-12.76 3.6 2.27 5.54 6.62 8.32 9.85l1.85-3.36-9.19-10.37.6-3.64 8.49-.01V56c-2.63 0-5.25 0-7.87-.01l.57-9.62 6.98.06-.01-3.1h-13.93l1.95-5.91-3.41-.65m61.06.23l-.02 5.59-17.33.02.04 3.07h17.29V57.8L326 57.79v3.42l16.22.07c-3.94 6.52-10.36 11.02-17.13 14.24l1.51 3.33c7.6-4.33 14.79-10.03 18.65-18.1.17 6.64.05 13.28.08 19.92h3.34l.05-19.49c4.58 7.2 10.85 13.25 18.24 17.53l1.99-3.03c-6.7-3.47-12.98-8.09-17.23-14.43l15.94-.03v-3.44l-10.62.02c1.7-2.99 3.25-6.06 4.69-9.19l-3.08-1.41-4.69 10.44-5.29.19.01-12.15 17.78-.01-.08-3.08h-17.7l-.02-5.59h-3.32M66.88 38.69c-7 2.75-10.31 10.75-9.61 17.88l-.75.62c-.23 1.31-.94 2.61-.85 3.94-1.89 4.27-3.5 8.89-3.27 13.62 2.16.76 2.97-2.88 4.35-4.11.42 2.84 1.48 5.61 3.47 7.73l.48 1.05-3.5 1.29a42.96 42.96 0 0 0 .64 2.48c3.52.47 7.12.36 10.61-.36 2.01.28 4.08.28 6.08-.07 3.8 1.38 7.88 1.04 11.83.67l.27-2.07-.07.03c-1.35-.86-2.82-1.5-4.3-2.08l.48-1.15c2.04-1.96 2.81-4.73 3.55-7.36.95 1.79 2.22 3.38 3.77 4.68.57-4.53-.83-8.92-2.27-13.16-.81-1.94-1.5-3.94-2-5.99-.35-4.35-.61-9.08-3.48-12.63-3.32-4.82-9.9-7.32-15.43-5.01m163.98.79c2.65 2.67 5.55 5.07 8.15 7.79l2.27-2.29c-2.54-2.61-5.2-5.1-8.13-7.27l-2.29 1.77m145.46-1.76l-2.1 2.25c3.12 2.3 6.04 4.85 8.81 7.55l2.12-2.57c-2.8-2.58-5.68-5.09-8.83-7.23m-132.54.89v2.78l21.21.07c-2.2 1.63-4.53 3.08-6.94 4.39-2.3-1.27-5.33-5.21-7.62-1.8l6.26 3.86c-3.97.12-7.94.1-11.9.09l-.01 25.39h3.21l.03-8.18h7.96l.03 8.18h3.21v-8.17l8.22.02c-.35 1.73.54 4.18-1.21 5.31-1.42-.03-2.85-.11-4.26-.26l.64 3.04c2.03-.16 4.17.1 6.13-.57 1.98-.68 1.57-3.03 1.68-4.67L270.39 48c-3.48.01-6.95.02-10.42-.09 3.28-2.37 6.74-4.48 9.8-7.15l-.14-2.19-25.85.04m143.48.27c-.14 13.25 1.61 27.36-4.51 39.66l2.57 2.19c6.1-12.08 5.37-25.92 5.36-39.05h11.65l-1.29 4.66-7.01-.03L394 63.2l8.33.03c-.11 4.58.24 9.18-.14 13.76-1.07 1.58-3.6.29-5.15.73l.97 3.07c2.39-.39 5.68.55 7.22-1.87.42-5.22.04-10.47.16-15.7l8-.01.03-16.89-9.21.02 1.4-4.69 10.34.04.07-2.9c-9.59.04-19.17-.12-28.76.09m-84.65 2.9l-.05 36.85 3.33.11.21-3.38 9.21.05.02 3 3.34.03.06-36.58c-5.37-.15-10.75-.05-16.12-.08m565.68 1.1c-1.71 4.71-3.53 9.46-6.61 13.47-.17-3.42-.13-6.85-.03-10.27-3.57-.11-7.13-.12-10.69-.08l.06 29.84 2.52-.02a99.69 99.69 0 0 1 .42-3.42l4.81.13.25 2.88 2.38-.17c.52-6.27.04-12.58.21-18.87l2.24 2.2c1.6-2.74 3.13-5.56 5.21-7.99 1.42 8.99.19 18.22.65 27.3l2.81-.13v-8.01c3.5-.45 7.05-.37 10.58-.33l.05-2.6c-3.47-.02-6.94-.03-10.4 0-.3-2.19-.35-4.4.1-6.57 3.16.08 6.34.1 9.52.09l-.06-2.66c-3.04.01-6.08.21-9.09-.09-1.5-1.71-.42-4.27-.35-6.31l10.73.01.02-2.64-14.46.05 1.78-5.22-2.65-.59m22.7 2.38l-.24 2.92 13.07.04c-.07 2.74.41 5.58-.36 8.24-4.94.45-9.91.05-14.85.16l.34 2.58c4.71.74 9.57.1 14.34.34-.89 7.92-8.34 12.36-14.84 15.5l2.15 2.71c6.28-3.15 12.67-7.24 15.19-14.18 2.48 6.77 8.47 11.28 14.95 13.9l1.73-3.19c-6.85-2.34-13.22-7.33-14.97-14.65 4.92-.17 9.84-.11 14.76-.17l-.13-2.86c-5.04.02-10.07-.03-15.1 0l.12-8.36 13.08-.04-.13-2.91c-9.71-.02-19.41.04-29.11-.03m45.04 8.24l3.26.46c.39-1.18.85-2.32 1.38-3.45 2.35-2.94 8.25-2.41 9.21 1.56.36 4.76-3.93 7.89-6.41 11.41-2.37 3.42-6.42 6.08-6.8 10.52h18.34l.06-3.4a1173.96 1173.96 0 0 0-13.27 0c3.59-4.97 8.41-9.15 10.9-14.84 2.04-4.58-1.82-9.9-6.65-10.02-4.89-.89-9.44 2.99-10.02 7.76m22.01.03l3.23.35c.72-1.63 1.04-3.87 2.94-4.6 2.61-1.34 7.04-.58 7.58 2.76.53 4.78-3.86 7.93-6.31 11.47-2.36 3.4-6.39 6.03-6.78 10.46l18.38.05-.04-3.41c-4.41-.02-8.81.01-13.2 0 3.59-5.26 8.89-9.49 11.05-15.62 1.56-4.44-2.36-9.11-6.83-9.26-4.93-.97-9.43 3.03-10.02 7.8m39.86-7.52l-2.1 14.04 2.33 1.54c2.6-1.93 6.55-3.44 9.35-1.02 3.74 2.81 2.14 9.53-2.45 10.38-3.21 1.04-6.21-1.13-7.8-3.77l-3.09 1.51c2.74 5.05 9.65 7.33 14.61 4.15 5.67-3.1 5.81-12.6-.05-15.58-2.92-1.73-6.38-.63-9.25.59.5-2.85.89-5.71 1.23-8.58l10.32-.07.05-3.2c-4.39 0-8.77-.01-13.15.01m18.62.05l.02 3.16 14.18.07-11.13 24.84 4.01-.4c1.97-5.07 4.28-9.99 6.38-15 1.69-4.19 4.1-8.17 4.54-12.75l-18 .08m-889.85 6.6c-4.2 5.24-4.38 13.51-.05 18.74 4.55 5.64 13.23 6.31 19.26 2.72 1.21.93 2.25 2.21 3.71 2.76.81-.8 1.56-1.66 2.32-2.51l-3.21-2.55c3.72-5.33 4.47-12.77.69-18.26-4.87-7.57-17.22-7.87-22.72-.9m32.49.68c-4.5 6.17-3.4 16.07 3.05 20.49 4.93 3.39 11.59 3.18 16.73.33l3.59 3.01 2.25-2.79-3.07-2.66c4.1-5.59 4.43-13.9-.19-19.29-5.48-6.78-17.45-6.27-22.36.91m173.1-3.97c1.71 2.53 3.24 5.18 4.69 7.87l2.67-1.71-4.54-7.85-2.82 1.69m41.13 2.08c2.68 2.45 5.43 4.84 7.98 7.46l2.32-2.28c-2.49-2.52-5.15-4.84-7.9-7.04l-2.4 1.86m609 .5c.91.86 1.15 2.97 2.7 2.9 2.3.59 3.66-3.58 1.41-4.34-1.6-1.17-2.84.73-4.11 1.44m-752.8 1.64v2.81l7 .01.05 14.32c-2.83 2.16-5.14 4.88-7.01 7.9l2.59 2.1c1.54-2.29 2.97-4.77 5.21-6.46 1.45-.23 2.26 1.25 3.31 1.98 1.7 1.74 3.95 2.91 6.4 3.11 8.26.81 16.57.64 24.86.64l.74-3.46c-8.27.27-16.58.55-24.84-.07-3.53-.17-6.16-2.68-8.3-5.23.13-5.89.05-11.78.06-17.68l-10.07.03m151.78 8.83c-1.92 5.88-4.9 11.31-7.29 17l2.99 1.11c2.74-5.41 4.92-11.06 7.24-16.65l-2.94-1.46m602.94 2.83c-1.26.52-2.04 2.39-.92 3.47.99 1.78 4.06 1.15 4.17-.9.53-1.77-1.58-3.45-3.25-2.57m-588.96 1.47c-1.08 3.51-2.65 6.85-4.87 9.77l2.7 1.86c2.31-3.42 3.98-7.22 5.21-11.16l-3.04-.47m13.48.33c1.74 3.68 3.56 7.32 5.07 11.1l2.72-1.17c-1.34-3.52-2.77-7.06-4.9-10.2l-2.89.27M92.01 107.59c-7.56.87-15.31.79-22.47 3.68-5.71.71-9.76 4.94-14.31 7.99-5.03 4.04-8.1 9.86-12.25 14.7-3.22 4.15-6.18 8.99-6.44 14.38-.3 4.9-1.56 9.79-.62 14.7 1.01 6.35-.7 12.64-.77 18.98l.03 219.96c-.01 5.06-.28 10.16.57 15.17 1.07 6.25-.39 12.67 1.1 18.87 2.07 8.41 6.34 16.05 10.67 23.48 1.54 2.71 4 4.71 6.63 6.32 4.86 2.91 9.19 7.09 15 8 11.26 3.34 23.17 3.88 34.83 3.01h883.94c3.32.05 6.74 1.02 9.99-.15 4.65-1.55 9.59-1.91 14.26-3.41 5.04-1.43 9.06-4.96 13.54-7.51 3.13-3.22 5.95-6.75 9.06-10 4.1-4.26 5.12-10.23 7.44-15.45 2.03-4.87 1.16-10.17.99-15.26V201.97c.18-14.64-.41-29.3.43-43.91-.63-4.24.18-8.46.43-12.7l-1.79 1.35c-1.7-3.44-1.83-7.35-3.08-10.92-1.54-1.43-3.63-2.4-4.35-4.52-1.66-4.39-6.15-6.56-8.65-10.35-2.71-4.35-7.89-5.64-11.95-8.27-2.91-1.63-5.65-4.2-9.2-4.01-4.72.12-9.39-.46-14.07-.94-291.32-.03-582.64 0-873.96-.01-8.33-.67-16.66.14-25-.1zM306 45h9.33l-.01 27.32-9.32.01V45zm91.19 4.02l13.45.01-.06 4.56-13.35.02-.04-4.59zm-265.87 4.27c4.69-3.62 12.59-2.4 15.39 3.02 2.32 4.05 1.57 9.05-.72 12.93l-5.75-4.49a16.33 16.33 0 0 0-1.23 3.15c1.16 1.33 2.51 2.47 3.79 3.67-3.66 1.68-8.17 1.59-11.51-.78-5.47-4.06-5.53-13.5.03-17.5zM248 51h8v4.33h-8V51zm11.22 0l8.12.01-.02 4.31-8.1.02V51zm137.98 5.02l13.49.06-.13 4.51-13.33.02-.03-4.59zm-149.19 2.19h7.98l.01 4.12h-8l.01-4.12z"/><path d="M259.21 58.22l8.14.01-.04 4.09-8.07.03-.03-4.13zm571.11 81.24c13.86-.8 27.78-.2 41.66-.42l85.05.07c5.23.17 9.27 4.13 14.14 5.65 5.38 1.56 7.96 6.82 11.53 10.65 3.93 4.27 5.59 9.94 7.7 15.22 2.25 5.52 1.58 11.62 1.3 17.42-.34 5.15-3.37 9.51-5.75 13.92-3.49 6.61-9.52 11.62-16.22 14.77-4.14 1.99-7.98 5.3-12.78 5.26l-122.99.05c-4.26 0-8.25-1.61-12.3-2.7-2.94-.85-6.13-1.42-8.49-3.52-4.73-3.91-9.8-7.7-13.01-13.04-4.7-8.4-7.04-18.2-6.08-27.81 1.2-4.54 3.1-8.87 4.64-13.31 5.88-12.05 18.14-21 31.6-22.21M861.98 174c.44.9.92 1.81 1.39 2.72l2.51-2.39.08 8.9 2.11.71 2.7-.71c-2.4 2.87-5.49 4.98-8.71 6.82 1.82 3.49 4.71 0 6.85-1.2l4.77 3.22c-3.46.81-6.95 1.45-10.47 1.88l1.02 2.44c4.66-.42 9.11-2.18 13.78-2.36 4.01.4 7.9 1.53 11.91 2.04l1.04-2.62c-3.12-.35-6.23-.77-9.3-1.38 2.46-1.84 6.55-2.77 6.66-6.46-4.96-.05-9.92-.14-14.86.07l-1.17-2.22c5.29-.46 10.6.36 15.87-.09l-.05-10.25c-6.99-.01-13.99.05-20.98-.03l1.98-2.04c7.21-.07 14.44.36 21.64-.27l-.52-2.06c-6.35-.01-12.71-.08-19.06.05l.57-2.29-2.94.28c-2.18 2.5-4.22 5.15-6.82 7.24m40.84-7.14l-.04 4.12-2.78-.06.29-3.01c-4.13-.48-3.41 4.98-5.02 7.5l2.35.93 1.39-2.95 3.82.4.01 3.35c-2.61.21-5.22.28-7.83.27l-.21 2.53 8.01.09.01 3.04a183.31 183.31 0 0 1-6.18.24l-.05 10.91 2.76.02.03-8.73 3.45.49-.04 10.48 2.67-.25c.38-3.5.11-7.02.18-10.52l3.7.02-.01 5.48-2.74.47.36 2.57c1.4-.31 2.92-.36 4.25-1 1.49-3.07.6-6.7.88-10l-6.29.02-.28-3.21 7.22-.21-.08-2.45-6.93-.03-.11-3.79 6-.03.07-2.54-6.07-.09-.01-4.24-2.78.18m17.21-.1c-.33 8.65.16 17.31-.24 25.96l-5.17.2.52 3.01c2.05-.13 4.19.01 6.2-.59 1.53-1.34 1.35-3.49 1.44-5.32l.06-23.11-2.81-.15m-5.73 3.22c.12 6.12.06 12.24.05 18.36l2.54.16c.23-6.25.18-12.5.04-18.75l-2.63.23zm-42.48 17.81c4.06-.16 8.13-.08 12.21-.02-2.26 1.15-4.51 2.52-7.05 2.85-1.96-.45-3.59-1.67-5.16-2.83z"/></g><g fill="#f85757"><path d="M284.28 36.77l3.41.65-1.95 5.91h13.93l.01 3.1-6.98-.06-.57 9.62L300 56v3.39l-8.49.01-.6 3.64c3.12 3.41 6.16 6.89 9.19 10.37l-1.85 3.36c-2.78-3.23-4.72-7.58-8.32-9.85-2.72 4.87-5.88 9.64-10.64 12.76l-2.02-2.66c5.69-4.25 9.77-10.56 10.81-17.64l-10.08.01V56l10.68-.08c.22-3.2.34-6.41.26-9.61l-4.43.12c-1.27 2.49-2.63 4.93-4.08 7.32l-2.91-1.99c3.06-4.58 5.41-9.64 6.76-14.99zm61.06.23h3.32l.02 5.59h17.7l.08 3.08c-5.93 0-11.86-.01-17.78.01l-.01 12.15 5.29-.19c1.64-3.44 3.14-6.95 4.69-10.44l3.08 1.41c-1.44 3.13-2.99 6.2-4.69 9.19l10.62-.02v3.44c-5.31 0-10.62-.04-15.94.03 4.25 6.34 10.53 10.96 17.23 14.43l-1.99 3.03c-7.39-4.28-13.66-10.33-18.24-17.53-.11 6.5-.03 12.99-.05 19.49h-3.34l-.08-19.92c-3.86 8.07-11.05 13.77-18.65 18.1l-1.51-3.33c6.77-3.22 13.19-7.72 17.13-14.24-5.4-.12-10.81-.05-16.22-.07v-3.42l19.32.01V45.68a2491.21 2491.21 0 0 0-17.29 0l-.04-3.07 17.33-.02.02-5.59zm-114.48 2.48l2.29-1.77c2.93 2.17 5.59 4.66 8.13 7.27l-2.27 2.29c-2.6-2.72-5.5-5.12-8.15-7.79zm12.92-.87l25.85-.04.14 2.19c-3.06 2.67-6.52 4.78-9.8 7.15 3.47.11 6.94.1 10.42.09l.03 20.09c-.11 1.64.3 3.99-1.68 4.67-1.96.67-4.1.41-6.13.57l-.64-3.04c1.41.15 2.84.23 4.26.26 1.75-1.13.86-3.58 1.21-5.31l-8.22-.02v8.17h-3.21l-.03-8.18h-7.96l-.03 8.18h-3.21l.01-25.39 11.9-.09c-2.07-1.32-4.17-2.58-6.26-3.86 2.29-3.41 5.32.53 7.62 1.8 2.41-1.31 4.74-2.76 6.94-4.39-7.07-.14-14.14-.03-21.21-.07v-2.78M248 51v4.33h8V51h-8m11.22 0v4.34l8.1-.02.02-4.31-8.12-.01m-11.21 7.21l-.01 4.12h8l-.01-4.12h-7.98m11.2.01l.03 4.13 8.07-.03.04-4.09-8.14-.01zm128.05-19.34c9.59-.21 19.17-.05 28.76-.09l-.07 2.9-10.34-.04-1.4 4.69 9.21-.02-.03 16.89-8 .01c-.12 5.23.26 10.48-.16 15.7-1.54 2.42-4.83 1.48-7.22 1.87l-.97-3.07c1.55-.44 4.08.85 5.15-.73.38-4.58.03-9.18.14-13.76L394 63.2l.03-16.89 7.01.03 1.29-4.66a1131.03 1131.03 0 0 0-11.65 0c.01 13.13.74 26.97-5.36 39.05l-2.57-2.19c6.12-12.3 4.37-26.41 4.51-39.66m9.93 10.14l.04 4.59 13.35-.02.06-4.56-13.45-.01m.01 7l.03 4.59 13.33-.02.13-4.51c-4.5-.13-9-.09-13.49-.06zm-94.59-14.24l16.12.08-.06 36.58-3.34-.03-.02-3-9.21-.05-.21 3.38-3.33-.11.05-36.85M306 45v27.33l9.32-.01.01-27.32H306zm26.26 4.37l2.82-1.69 4.54 7.85-2.67 1.71-4.69-7.87zm41.13 2.08l2.4-1.86c2.75 2.2 5.41 4.52 7.9 7.04l-2.32 2.28c-2.55-2.62-5.3-5.01-7.98-7.46z"/><path d="M229.59 53.59l10.07-.03-.06 17.68c2.14 2.55 4.77 5.06 8.3 5.23 8.26.62 16.57.34 24.84.07L272 80c-8.29 0-16.6.17-24.86-.64-2.45-.2-4.7-1.37-6.4-3.11-1.05-.73-1.86-2.21-3.31-1.98-2.24 1.69-3.67 4.17-5.21 6.46l-2.59-2.1c1.87-3.02 4.18-5.74 7.01-7.9l-.05-14.32-7-.01v-2.81zm151.78 8.83l2.94 1.46c-2.32 5.59-4.5 11.24-7.24 16.65l-2.99-1.11c2.39-5.69 5.37-11.12 7.29-17zm27.46 4.63l2.89-.27c2.13 3.14 3.56 6.68 4.9 10.2l-2.72 1.17c-1.51-3.78-3.33-7.42-5.07-11.1zm1.49 89.52l3.36-.01v8.76l17.28-.02.01 22.4-3.42-.03.05-2.98-13.92-.01.03 16.47-3.41.04.02-16.51c-4.64-.02-9.28-.02-13.92.01l.05 2.98-3.42.03-.01-22.39 17.3.01v-8.75m-13.9 11.85v13.16c4.65.02 9.3.09 13.95-.08l-.01-13.02c-4.65-.14-9.3-.08-13.94-.06m17.22.05l-.03 13.01c4.65.2 9.31.11 13.97.1v-13.16c-4.65-.02-9.29-.07-13.94.05zm-71.55 3.04c7.51-4.16 15.2-8.38 20.92-14.96 1.69.21 3.24.88 4.33 2.24 5.09 5.45 11.64 9.21 18.34 12.33l-1.72 2.92c-7.47-3.43-14.44-8.05-19.97-14.19-5.5 6.07-12.44 10.6-19.84 14.05l-2.06-2.39zm104.24-14.19h3.32l.08 6.5 6.27-.04v3.21l-6.33.02v7.98l7 .01-.01 3.23-7.32-.01-.02 3.7c2.54 3.07 5.57 5.73 8.1 8.83l-2.06 2.81c-2.02-3.02-4.34-5.82-6.74-8.54-1.15 5.91-3.8 11.44-7.78 15.96l-2.52-2.19c5.15-5.57 7.39-13.12 7.78-20.57-2.44 0-4.88-.01-7.31-.01l-.01-3.2 7.55-.02V167h-6.75l.09-3.23 6.65.01.01-6.46zm78.27-.32h3.4v37.05c-.12 2.02-.04 4.78-2.22 5.77-2.89.79-5.97.3-8.93.38l-.79-3.25c2.57.01 5.28.73 7.77-.2.92-.99.65-2.48.79-3.7L524.6 157zm-65.59 1.79l19.39-.01v26.45l-3.4-.02V162c-4.27-.01-8.53-.01-12.79.01v23.2l-3.2.01v-26.43z"/><path d="M488.79 158.79h20.42v29.42h-3.42v-26.19L492 162l-.04 26.69-3.06.09c-.26-10-.06-20-.11-29.99zm26 2.22L518 161v30c-.81 0-2.41 0-3.21-.01v-29.98zm-17.46 4.31h3.34c-.25 8.19.85 16.61-1.56 24.57-1.59 5.48-6.34 9.38-11.6 11.15l-1.65-2.92c4.17-1.91 8.71-4.45 10.09-9.19 2.41-7.63 1.01-15.75 1.38-23.61zM467 166h3.21c.07 8.56.47 17.71-3.79 25.45-2.5 4.53-7.1 7.25-11.57 9.5l-1.87-2.85c4.77-2.19 9.68-5.24 11.74-10.33 2.93-6.89 2.23-14.48 2.28-21.77zm-113 3l20.04-.01-.05 3.01H354v-3zm-6.97 8.31l14.43.06c-.11 6-.06 12-.04 18l-3.02.12-.13-2.49-8.05.01-.01 3.39H347l.03-19.09m3.2 3.08l-.01 9.39 8.12-.02-.02-9.34-8.09-.03zm15.77-3.05h15.22c-.18 5.2.38 10.45-.28 15.62-.92 3.54-5.29 2.54-8 2.8l-.85-3.1c1.92 0 3.85-.08 5.73-.5l-.05-11.77-8.35.03-.02 20.8c-.85 0-2.55 0-3.4-.01v-23.87zm103.59 8.24l2.84.01c-.07 3.79-.16 7.6.24 11.39l5.46.04c.47-1.98.8-3.98 1.1-5.98l2.91.88c-.56 2.89-.07 7.77-4.07 8.16-2.59.1-6.11.95-8.02-1.25-1.03-4.3-.2-8.85-.46-13.25zm30.81 6.36l2.53-2.2c2.93 2.52 5.7 5.22 8.18 8.2l-2.51 2.47c-2.46-3.08-5.23-5.9-8.2-8.47zm57.12 121.84c3.19-4.67 5.26-9.94 7.08-15.26l3.07 1.01-1.93 5.79 13.94.01v3.11l-6.98-.05c-.28 3.19-.42 6.39-.57 9.59l7.87.03v3.38l-8.5.02-.6 3.61 9.19 10.39-1.81 3.39c-2.66-3.63-5.36-7.22-8.28-10.63-2.1 5.4-5.94 9.82-10.31 13.52l-2.51-2.6c5.72-4.27 9.85-10.59 10.89-17.7l-10.07.01V318l10.69-.09c.19-3.18.31-6.36.32-9.54l-4.49.05c-1.27 2.49-2.64 4.95-4.1 7.34l-2.9-1.98zm54.79-14.75l3.09-.04-.04 8.94 5.86.1-.01 3.17-5.82.04-.02 3.48 7.22 8.3-1.91 2.9c-1.6-2.52-3.31-4.97-5.26-7.23l.01 24c-.78 0-2.33-.02-3.1-.03l-.04-23.82c-1.82 4.19-3.57 8.42-5.9 12.36l-1.48-3.73c3.47-4.88 5.83-10.45 7.25-16.25a566.48 566.48 0 0 0-5.83 0l.01-3.22 5.99-.01-.02-8.96zm-101.2 2.87l1.91-2.45c2.87 2.36 5.64 4.84 8.25 7.5l-2.27 2.29c-2.47-2.62-5.27-4.88-7.89-7.34zm12.67-1.3l26.21.01c-.95 4.91-6.72 6.25-10.04 9.3 3.48.11 6.96.1 10.45.09-.12 7.66.24 15.33-.15 22.98-.97 3.07-5.07 1.98-7.52 2.39l-.86-3.02c1.69-.05 3.52.51 5.15-.2.31-1.62.32-3.27.43-4.91l-8.22-.02-.02 8.18h-3.2l-.03-8.19h-7.97l-.01 8.18-3.22.01.01-25.4 11.87-.08-6.18-3.89c2.21-3.4 5.27.56 7.57 1.81 2.4-1.31 4.73-2.76 6.95-4.37-7.07-.15-14.15-.03-21.22-.07v-2.8M528 313v4.33h8V313h-8m11.22 0l.01 4.33 8.08-.01.02-4.31-8.11-.01m-11.2 7.21l-.03 4.12 8.02-.01-.03-4.11h-7.96m11.17.01l.11 4.17 8-.08.06-4.07-8.17-.02zm117.15-19.44h16.06l.01 16.63c-5.36-.01-10.73-.03-16.09.02l.02-16.65m3.09 2.63l-.05 4.36 9.97-.01-.04-4.34-9.88-.01m-.02 7.01v4.16c3.32.05 6.64.04 9.96-.08l.02-3.99c-3.33-.14-6.66-.15-9.98-.09zm15.54-9.63l20.71-.02.02 2.9c-2.79 0-5.58 0-8.36-.02l-.83 4.11 7.91.03-.01 19.22-3.08-.05.01-16.28c-3.89-.02-7.76-.02-11.64 0l.03 16.24-3.1.11-.01-19.23 7.04-.06.43-4.07c-2.99-.01-5.97 0-8.95.06l-.17-2.94zm-50.35.99h21.8v3.21l-21.8.01v-3.22zm-42 2l15.94-.09c.27 12.26.1 24.54.09 36.8l-3.31-.09-.01-2.98-9.2-.05-.24 3.39-3.32-.15.05-36.83M586 307v27.33l9.32-.01.01-27.32H586zm36.02 6.31l26.9-.03.08 3.41-11.78-.01c-.22 7.73.44 15.51-.33 23.2-1.46 3.5-5.89 2.05-8.83 2.36l-.63-2.99c2.12-.3 6.31 1.23 6.31-2.09.15-6.83-.02-13.65.04-20.48-3.92-.02-7.84-.02-11.76.01v-3.38zm62-.31h2.97c.01 5.62.47 11.61-2.17 16.78-1.62 3.35-5.06 5.13-8.15 6.88l-1.99-2.8c2.91-1.51 6.24-3.06 7.65-6.25 2.06-4.57 1.55-9.73 1.69-14.61zm-174.43 2.59l10.03-.06-.01 17.75c2.21 2.59 4.91 5.1 8.53 5.22 8.18.55 16.41.32 24.6.03l-.73 3.47c-8.52-.03-17.07.23-25.54-.74-3.55-.41-6-3.21-8.51-5.45-2.32 1.94-4.19 4.34-5.75 6.93l-2.58-2.11c1.86-3.03 4.2-5.74 7.01-7.93l-.06-14.29a816.67 816.67 0 0 0-7 0l.01-2.82zm116.84 5.46l3.12.07c-1.46 6.1-3.58 12.04-6.67 17.51l-2.96-1.8c3.04-4.87 4.84-10.33 6.51-15.78zm14.19.62l3.17-1.26c1.83 5.76 3.79 11.5 4.99 17.44l-2.94 1.22c-1.48-5.87-3-11.76-5.22-17.4zm13.36-1.06l20.4-.03.1 3.07-7.8.03-.01 5.31 6.55.02v2.98l-6.53.02-.06 5.33c10.03 2.3 20.43 1.25 30.62 1.34-.72.94-.25 3.66-2.1 3.3-9.04.03-18.18.35-27.13-1.14-3.89-.59-6.67-3.51-9.38-6.09-.98 2.77-2.13 5.48-3.45 8.1l-2.4-2.15c2.39-4.57 3.88-9.57 4.15-14.73l2.93.24-.52 4.81c1.24 1.59 2.62 3.06 4.13 4.42.17-3.92.12-7.84.1-11.76-3.18-.01-6.36-.01-9.54.01l-.06-3.08zm32.87 8.97l2.03-2.39c2.63 2.19 5.17 4.49 7.58 6.93l-2.37 2.35c-2.26-2.45-4.66-4.77-7.24-6.89zm180.51 42.14l3.33.72-1.94 5.88 13.92.01.02 3.11-7-.05-.56 9.59 7.87.03v3.38l-8.49.02-.6 3.63c3.12 3.4 6.15 6.87 9.18 10.36l-1.82 3.39c-2.65-3.62-5.34-7.22-8.28-10.61-2.13 5.4-5.92 9.9-10.4 13.51l-2.38-2.61c5.7-4.27 9.82-10.59 10.87-17.69l-10.08.01V391l10.67-.07c.21-3.19.33-6.37.33-9.56l-4.5.06c-1.25 2.53-2.64 4.99-4.17 7.36l-2.79-2.06c3.07-4.59 5.36-9.68 6.82-15.01zm61.71.06h3.37l-.25 7.82H949l.03 29.38c-.02 2.06-.07 4.76-2.21 5.83-3.24.79-6.63.31-9.93.4l-1.02-3.43c2.97.11 6 .56 8.95-.07.98-.92.61-2.46.8-3.65l-.11-25.43-13.73.04-.88 5.41c4.47 4.31 8.76 8.83 12.46 13.84a119.14 119.14 0 0 0-2.5 2.53c-3.25-4.61-6.88-8.93-10.9-12.88-2.37 5.48-6.3 10.09-11.19 13.47l-2.4-2.5c3.28-2.77 6.68-5.59 8.81-9.39 1.87-3.19 2.48-6.89 3.18-10.47-4.62-.02-9.24.02-13.85-.07-.23 11.01-.09 22.02-.07 33.03l-3.4.08-.04-36.12 17.7-.01.37-7.81zm45.88.37l3.57-.59 1.75 4.23 17.4-.01-.02 8.6-3.1-.26c-.28-1.69-.26-3.41-.3-5.12-10.84-.02-21.69.04-32.53-.03l-.06 5.46h-3.34l.02-8.65 18.34.01-1.73-3.64zm-161.09 2.38l2.33-1.91c2.83 2.29 5.54 4.73 8.07 7.35l-2.27 2.29c-2.59-2.71-5.46-5.11-8.13-7.73zm12.92-.93h26.19c-.91 4.92-6.71 6.26-10.03 9.31 3.48.11 6.97.1 10.46.09-.12 7.65.24 15.32-.15 22.96-.94 3.1-5.09 1.99-7.53 2.41l-.83-3.05c1.42.12 2.85.2 4.3.22 1.8-1.07.89-3.58 1.26-5.29l-8.23-.03v8.18h-3.21l-.03-8.19h-7.96l-.03 8.19h-3.21l.01-25.4 11.87-.09-6.21-3.87c2.21-3.45 5.27.55 7.61 1.8 2.39-1.32 4.72-2.76 6.96-4.34-7.08-.21-14.16-.05-21.24-.1v-2.8M831 386v4.33h8V386h-8m11.22 0l.01 4.33 8.09-.01.01-4.32c-2.71 0-5.41-.01-8.11 0m-11.2 7.21l-.03 4.11 8.01.01-.01-4.12h-7.97m11.19.01l.04 4.13 8.05-.03.06-4.08-8.15-.02zm43.4-16.44l16.11.08-.18 36.49-3.21.19-.02-3.12-9.19-.06-.25 3.4-3.32-.14.06-36.84M889 380l.01 27.33 9.31-.01.01-27.32H889zm68.73 9.82a84.73 84.73 0 0 0 14.87-8.81l1.73 2.15c-4.5 3.83-9.61 6.94-15.04 9.25l-1.56-2.59zm25.42-8.87a97.83 97.83 0 0 1 15.07 9.1l-2.31 1.84c-4.39-2.51-8.46-5.63-12.98-7.96-1.64-.52.01-2.09.22-2.98zm-8.87 8.37c1.34-1.15 2.66-2.96 4.7-2.3 1.94 1.38 3.5 3.23 5.39 4.7 4.48 3.53 9.81 5.7 14.95 8.06l-1.65 2.63-5.44-2.34-.01 15.78c-1.67-.06-3.25-.39-4.06-2.05-6.89-.35-13.79-.02-20.67-.12l-.11 2.03-3.05-.05c.01-5.42.07-10.85-.25-16.27-1.74 1.5-3.85 2.35-6 3.03l-1.59-2.67c6.39-2.56 12.79-5.59 17.79-10.43m-9.97 9.88c1.13.5 2.26 1.15 3.59.88 7.98-.16 15.97-.04 23.95-.08-5.07-2.69-9.96-5.82-13.84-10.11-4.01 3.77-8.21 7.9-13.7 9.31m3.07 3.83l.02 7.75 21.59.01.01-7.79c-7.21.01-14.42-.04-21.62.03zm-154.79-14.44l10.06-.04-.04 17.7c2.18 2.61 4.89 5.12 8.51 5.25 8.18.55 16.42.32 24.62.03L855 415c-6.34-.05-12.69.16-19.02-.23-3.15-.24-6.45-.04-9.37-1.38-2.09-1.13-3.63-2.99-5.56-4.33-2.74 1.36-4.14 4.28-5.83 6.67l-2.58-2.06c1.82-3.05 4.15-5.76 6.98-7.92l-.03-14.33-7.01-.01.01-2.82z"/></g><path fill="#2c2a30" d="M66.88 38.69c5.53-2.31 12.11.19 15.43 5.01 2.87 3.55 3.13 8.28 3.48 12.63l-.45.3c-1.95-.51-3.88-1.1-5.81-1.69l.51-1.61-2.44-1.01-.46-2.33.94-1.63c.06-2.08-.64-4.15-2.5-5.28-2.1.25-2.41 2.64-3.04 4.21l3.93-1.41-3.39 2.29-.28 1.37-2.97.41.41-2.88-2.52 2.55-.09-3.95 2.9 1.27c-.72-1.65-1.74-3.14-2.96-4.45-2.32 2.19-3.42 5.26-1.56 8.14l-3.27-.23-2.16 4.76c-1.12.44-2.22.91-3.31 1.41-.7-7.13 2.61-15.13 9.61-17.88z"/><path fill="#f86262" d="M376.32 37.72c3.15 2.14 6.03 4.65 8.83 7.23l-2.12 2.57c-2.77-2.7-5.69-5.25-8.81-7.55l2.1-2.25z"/><path d="M67.57 42.49c1.22 1.31 2.24 2.8 2.96 4.45l-2.9-1.27.09 3.95 2.52-2.55-.41 2.88c-1.18.67-2.48.92-3.82.68-1.86-2.88-.76-5.95 1.56-8.14zm97.42 10.31c5.17-3.48 13.34-1.13 15.36 4.92 1.57 3.83.65 8.06-1.35 11.52-1.95-1.44-3.83-2.95-5.72-4.45-.6.97-1.02 2.02-1.27 3.12 1.17 1.33 2.55 2.44 3.85 3.63-4.04 1.95-9.44 1.69-12.62-1.74-4.72-4.59-3.97-13.54 1.75-17zm688.9 7.55l4.96.17.07 9.44-5.22.07c-.14-3.23-.12-6.46.19-9.68zm15.2 114.93h15.85l.17 2.05c-5.34-.03-10.68.02-16.01-.11l-.01-1.94z" fill="#fefefe"/><path d="M72.54 47.29c.63-1.57.94-3.96 3.04-4.21 1.86 1.13 2.56 3.2 2.5 5.28l-.94 1.63c-1.43 1.44-3 .76-4.34-.45l.28-1.37 3.39-2.29-3.93 1.41zm8.66 16.44l.73-.14c-.11 4.5 1.27 9.75-2.03 13.46-4 5.45-13 5.39-17.13.14-3.06-3.88-2.76-9.06-2.7-13.71l2.28 1.38.41 6.43 6.29-.16.38-6.56c3.94.01 7.9-.13 11.77-.84zm788.24 115.66c5.16-.43 10.35-.09 15.53-.15l.08 2.01c-5.5-.03-11 .14-16.49-.17l.88-1.69z" fill="#fefcfc"/><path d="M868.29 42.88l2.65.59-1.78 5.22c4.81.07 9.63-.01 14.46-.05l-.02 2.64c-3.59 0-7.16.03-10.73-.01-.07 2.04-1.15 4.6.35 6.31 3.01.3 6.05.1 9.09.09l.06 2.66c-3.18.01-6.36-.01-9.52-.09-.45 2.17-.4 4.38-.1 6.57h10.4l-.05 2.6c-3.53-.04-7.08-.12-10.58.33v8.01l-2.81.13c-.46-9.08.77-18.31-.65-27.3-2.08 2.43-3.61 5.25-5.21 7.99l-2.24-2.2c-.17 6.29.31 12.6-.21 18.87l-2.38.17-.25-2.88-4.81-.13a99.69 99.69 0 0 0-.42 3.42l-2.52.02-.06-29.84c3.56-.04 7.12-.03 10.69.08-.1 3.42-.14 6.85.03 10.27 3.08-4.01 4.9-8.76 6.61-13.47m-14.65 5.68l.01 9.43 5.3.02-.02-9.42-5.29-.03m.25 11.79c-.31 3.22-.33 6.45-.19 9.68l5.22-.07c.05-3.15.04-6.3-.07-9.44l-4.96-.17zM997.9 46.01l13.15-.01-.05 3.2-10.32.07-1.23 8.58c2.87-1.22 6.33-2.32 9.25-.59 5.86 2.98 5.72 12.48.05 15.58-4.96 3.18-11.87.9-14.61-4.15l3.09-1.51c1.59 2.64 4.59 4.81 7.8 3.77 4.59-.85 6.19-7.57 2.45-10.38-2.8-2.42-6.75-.91-9.35 1.02l-2.33-1.54 2.1-14.04z" fill="#777"/><path fill="#787878" d="M890.99 45.26l29.11.03.13 2.91c-4.36 0-8.72-.02-13.08.04l-.12 8.36h15.1l.13 2.86-14.76.17c1.75 7.32 8.12 12.31 14.97 14.65l-1.73 3.19c-6.48-2.62-12.47-7.13-14.95-13.9-2.52 6.94-8.91 11.03-15.19 14.18l-2.15-2.71c6.5-3.14 13.95-7.58 14.84-15.5-4.77-.24-9.63.4-14.34-.34l-.34-2.58c4.94-.11 9.91.29 14.85-.16.77-2.66.29-5.5.36-8.24-4.36-.01-8.72 0-13.07-.04l.24-2.92z"/><path d="M936.03 53.5c.58-4.77 5.13-8.65 10.02-7.76 4.83.12 8.69 5.44 6.65 10.02-2.49 5.69-7.31 9.87-10.9 14.84h13.27l-.06 3.4c-6.12-.01-12.23.01-18.34 0 .38-4.44 4.43-7.1 6.8-10.52 2.48-3.52 6.77-6.65 6.41-11.41-.96-3.97-6.86-4.5-9.21-1.56-.53 1.13-.99 2.27-1.38 3.45l-3.26-.46zm46.36-1.55c1.27-.71 2.51-2.61 4.11-1.44 2.25.76.89 4.93-1.41 4.34-1.55.07-1.79-2.04-2.7-2.9zM861.98 174c2.6-2.09 4.64-4.74 6.82-7.24l2.94-.28-.57 2.29c6.35-.13 12.71-.06 19.06-.05l.52 2.06c-7.2.63-14.43.2-21.64.27l-1.98 2.04 20.98.03.05 10.25c-5.27.45-10.58-.37-15.87.09l1.17 2.22c4.94-.21 9.9-.12 14.86-.07-.11 3.69-4.2 4.62-6.66 6.46 3.07.61 6.18 1.03 9.3 1.38l-1.04 2.62c-4.01-.51-7.9-1.64-11.91-2.04-4.67.18-9.12 1.94-13.78 2.36l-1.02-2.44c3.52-.43 7.01-1.07 10.47-1.88l-4.77-3.22c-2.14 1.2-5.03 4.69-6.85 1.2 3.22-1.84 6.31-3.95 8.71-6.82l-2.7.71-2.11-.71-.08-8.9-2.51 2.39-1.39-2.72m7.11 1.28l.01 1.94c5.33.13 10.67.08 16.01.11l-.17-2.05h-15.85m.35 4.11l-.88 1.69c5.49.31 10.99.14 16.49.17l-.08-2.01c-5.18.06-10.37-.28-15.53.15m2.38 8.4c1.57 1.16 3.2 2.38 5.16 2.83 2.54-.33 4.79-1.7 7.05-2.85-4.08-.06-8.15-.14-12.21.02z" fill="#767676"/><path d="M958.04 53.53c.59-4.77 5.09-8.77 10.02-7.8 4.47.15 8.39 4.82 6.83 9.26-2.16 6.13-7.46 10.36-11.05 15.62h13.2l.04 3.41c-6.13-.08-12.25.01-18.38-.05.39-4.43 4.42-7.06 6.78-10.46 2.45-3.54 6.84-6.69 6.31-11.47-.54-3.34-4.97-4.1-7.58-2.76-1.9.73-2.22 2.97-2.94 4.6l-3.23-.35zm-831.37-.87c5.5-6.97 17.85-6.67 22.72.9 3.78 5.49 3.03 12.93-.69 18.26l3.21 2.55c-.76.85-1.51 1.71-2.32 2.51-1.46-.55-2.5-1.83-3.71-2.76-6.03 3.59-14.71 2.92-19.26-2.72-4.33-5.23-4.15-13.5.05-18.74m4.65.63c-5.56 4-5.5 13.44-.03 17.5 3.34 2.37 7.85 2.46 11.51.78-1.28-1.2-2.63-2.34-3.79-3.67a16.33 16.33 0 0 1 1.23-3.15l5.75 4.49c2.29-3.88 3.04-8.88.72-12.93-2.8-5.42-10.7-6.64-15.39-3.02zm27.84.05c4.91-7.18 16.88-7.69 22.36-.91 4.62 5.39 4.29 13.7.19 19.29l3.07 2.66-2.25 2.79-3.59-3.01c-5.14 2.85-11.8 3.06-16.73-.33-6.45-4.42-7.55-14.32-3.05-20.49m5.83-.54c-5.72 3.46-6.47 12.41-1.75 17 3.18 3.43 8.58 3.69 12.62 1.74-1.3-1.19-2.68-2.3-3.85-3.63.25-1.1.67-2.15 1.27-3.12l5.72 4.45c2-3.46 2.92-7.69 1.35-11.52-2.02-6.05-10.19-8.4-15.36-4.92z" fill="#757575"/><path fill="#727272" d="M1016.52 46.06l18-.08c-.44 4.58-2.85 8.56-4.54 12.75-2.1 5.01-4.41 9.93-6.38 15l-4.01.4 11.13-24.84c-4.73-.11-9.46-.07-14.18-.07l-.02-3.16z"/><path fill="#fdfdfd" d="M853.64 48.56l5.29.03.02 9.42-5.3-.02-.01-9.43z"/><path fill="#442319" d="M62.74 50.4l3.27.23c1.34.24 2.64-.01 3.82-.68l2.97-.41c1.34 1.21 2.91 1.89 4.34.45l.46 2.33c-4.29-.54-8.72-.68-12.94.44-2.41-.71-2.41 3.05 0 2.35l3.36 1.21c2.16 1.35 4.74 1.3 6.92.02 1.54-.44 3.08-.88 4.59-1.4l5.81 1.69-1.32.96a113.94 113.94 0 0 1-3.13.55l-2.39.22c-4.64-.62-9.33-.62-13.98-.05l-3.77-.48-1.64-.21-2.59-.43.75-.62c1.09-.5 2.19-.97 3.31-1.41l2.16-4.76z"/><path fill="#e4af28" d="M64.66 52.76c4.22-1.12 8.65-.98 12.94-.44l2.44 1.01-.51 1.61c-1.51.52-3.05.96-4.59 1.4-2.26-.77-4.66-.77-6.92-.02l-3.36-1.21v-2.35z"/><path fill="#bca475" d="M64.66 55.11c-2.41.7-2.41-3.06 0-2.35v2.35z"/><path fill="#9e784b" d="M68.02 56.32c2.26-.75 4.66-.75 6.92.02-2.18 1.28-4.76 1.33-6.92-.02z"/><path fill="#ad605e" d="M85.34 56.63l.45-.3c.5 2.05 1.19 4.05 2 5.99l-5.86 1.27-.73.14 4.53-2.83-1.71-3.31 1.32-.96z"/><path fill="#d19892" d="M56.52 57.19l2.59.43-1.51.66-1.47 3.35 7.01 2.21-.34 5.94 5.37.71.07-2.36.1-3.56h1.09l-.38 6.56-6.29.16-.41-6.43-2.28-1.38c-1.06-.78-2.49-1.41-3.78-.79l-.62-1.56c-.09-1.33.62-2.63.85-3.94z"/><path fill="#e24643" d="M57.6 58.28l1.51-.66 1.64.21-.3 1.94c5.52.09 11.05.58 16.56.15 1.48-.06 2.64-1.11 3.88-1.78l3.13-.55 1.71 3.31c-1.5.96-2.99 1.94-4.53 2.83-3.87.71-7.83.85-11.77.84h-1.09l-.1 3.56-3.74-.12-1.36-4.17c-2.33-.78-4.67-1.5-7.01-2.21.47-1.12.97-2.24 1.47-3.35z"/><path fill="#bb5045" d="M60.75 57.83l3.77.48c4.62 1.01 9.35.86 13.98.05l2.39-.22c-1.24.67-2.4 1.72-3.88 1.78-5.51.43-11.04-.06-16.56-.15l.3-1.94z"/><path fill="#7b190c" d="M64.52 58.31c4.65-.57 9.34-.57 13.98.05-4.63.81-9.36.96-13.98-.05z"/><path fill="#2c292e" d="M55.67 61.13l.62 1.56c.39 1.66 2.64 1.71 3.78.79-.06 4.65-.36 9.83 2.7 13.71 4.13 5.25 13.13 5.31 17.13-.14 3.3-3.71 1.92-8.96 2.03-13.46 1.96-.39 3.91-.83 5.86-1.27 1.44 4.24 2.84 8.63 2.27 13.16-1.55-1.3-2.82-2.89-3.77-4.68-.74 2.63-1.51 5.4-3.55 7.36-1.24 1.17-2.58 2.24-3.93 3.27-1.41.51-2.84.94-4.28 1.33-2 .35-4.07.35-6.08.07-3.02-.89-5.92-2.29-8.23-4.46-1.99-2.12-3.05-4.89-3.47-7.73-1.38 1.23-2.19 4.87-4.35 4.11-.23-4.73 1.38-9.35 3.27-13.62z"/><path fill="#631118" d="M56.29 62.69c1.29-.62 2.72.01 3.78.79-1.14.92-3.39.87-3.78-.79z"/><path fill="#be514c" d="M63.14 63.84l1.36 4.17 3.74.12-.07 2.36-5.37-.71.34-5.94z"/><path d="M984.31 65.25c1.67-.88 3.78.8 3.25 2.57-.11 2.05-3.18 2.68-4.17.9-1.12-1.08-.34-2.95.92-3.47zm-64.28 101.51l2.81.15c-.17 7.7-.03 15.41-.06 23.11-.09 1.83.09 3.98-1.44 5.32-2.01.6-4.15.46-6.2.59l-.52-3.01 5.17-.2c.4-8.65-.09-17.31.24-25.96z" fill="#737373"/><path fill="#f85f5f" d="M395.35 66.72l3.04.47c-1.23 3.94-2.9 7.74-5.21 11.16l-2.7-1.86c2.22-2.92 3.79-6.26 4.87-9.77z"/><path fill="#dfb154" d="M60.22 78.37c2.31 2.17 5.21 3.57 8.23 4.46-3.49.72-7.09.83-10.61.36a42.96 42.96 0 0 1-.64-2.48l3.5-1.29-.48-1.05z"/><path fill="#c9bb64" d="M78.81 81.43l3.93-3.27-.48 1.15c1.48.58 2.95 1.22 4.3 2.08-2.49 1.43-5.31 1.85-7.75.04z"/><path fill="#e1d6a0" d="M74.53 82.76l4.28-1.33c2.44 1.81 5.26 1.39 7.75-.04l.07-.03-.27 2.07c-3.95.37-8.03.71-11.83-.67z"/><g fill="#efefef"><path d="M92.01 107.59c8.34.24 16.67-.57 25 .1l873.96.01c4.68.48 9.35 1.06 14.07.94 3.55-.19 6.29 2.38 9.2 4.01 4.06 2.63 9.24 3.92 11.95 8.27 2.5 3.79 6.99 5.96 8.65 10.35.72 2.12 2.81 3.09 4.35 4.52 1.25 3.57 1.38 7.48 3.08 10.92l1.79-1.35c-.25 4.24-1.06 8.46-.43 12.7-.84 14.61-.25 29.27-.43 43.91v223.08c.17 5.09 1.04 10.39-.99 15.26-2.32 5.22-3.34 11.19-7.44 15.45-3.11 3.25-5.93 6.78-9.06 10-4.48 2.55-8.5 6.08-13.54 7.51-4.67 1.5-9.61 1.86-14.26 3.41-3.25 1.17-6.67.2-9.99.15H103.98c-11.66.87-23.57.33-34.83-3.01-5.81-.91-10.14-5.09-15-8-2.63-1.61-5.09-3.61-6.63-6.32-4.33-7.43-8.6-15.07-10.67-23.48-1.49-6.2-.03-12.62-1.1-18.87-.85-5.01-.58-10.11-.57-15.17l-.03-219.96c.07-6.34 1.78-12.63.77-18.98-.94-4.91.32-9.8.62-14.7.26-5.39 3.22-10.23 6.44-14.38 4.15-4.84 7.22-10.66 12.25-14.7 4.55-3.05 8.6-7.28 14.31-7.99 7.16-2.89 14.91-2.81 22.47-3.68m937.1 19.09c-1.52 2.77-.62 5.81 1.01 8.29 3.06 4.79 3.86 10.53 4.88 16.01.48 7.66 1.15 15.32.92 23l.09 254.02c.11 3.28-1.35 6.27-2.71 9.15-1.63 3.34-2.61 7.08-5.13 9.9-3.48 3.9-6.11 8.77-10.79 11.42-7.09 4.29-14.92 8.14-23.38 8.21-13.34.29-26.69-.01-40.04.11H93.98c-11.91.19-24.16-2.66-33.71-10.04-5.05-4.58-9.07-10.33-11.34-16.77-1.33-4.1-4.92-7.44-4.76-11.97.07-5.68-.03-11.36-.18-17.04l-.04-242.06c-.09-7.64.26-15.29 1.01-22.89.45-4.66 3.83-8.73 3.36-13.48-2.01 2.96-3.93 6.02-5.3 9.33-1.8 4.63-1.04 9.68-1.44 14.52-.54 6.19-.24 12.4-.32 18.6l.01 254.07c.24 5.36 2.69 10.27 4.26 15.33 1.44 4.78 4.68 8.65 7.59 12.6 4.59 5.39 11.37 8.06 18.02 9.93 9.42 3.96 19.86 3.1 29.84 3.02l228 .13c13.01-.4 26.03.08 39.04.01l621.89-.08c7.57-.13 15.8.61 22.53-3.55 3.1-1.92 6.94-2.1 10.03-3.99 3.58-3.8 6.54-8.15 9.66-12.33 3.84-5.23 6.24-11.54 5.76-18.1l1.92 1.7c-.35-7.58.05-15.18-1.11-22.7l-.02-246.03c-.1-5.4 1.68-10.82.49-16.19-1.65-8.04-6.28-14.99-10.06-22.13m-198.79 12.78c-13.46 1.21-25.72 10.16-31.6 22.21-1.54 4.44-3.44 8.77-4.64 13.31-.96 9.61 1.38 19.41 6.08 27.81 3.21 5.34 8.28 9.13 13.01 13.04 2.36 2.1 5.55 2.67 8.49 3.52 4.05 1.09 8.04 2.7 12.3 2.7l122.99-.05c4.8.04 8.64-3.27 12.78-5.26 6.7-3.15 12.73-8.16 16.22-14.77 2.38-4.41 5.41-8.77 5.75-13.92.28-5.8.95-11.9-1.3-17.42-2.11-5.28-3.77-10.95-7.7-15.22-3.57-3.83-6.15-9.09-11.53-10.65-4.87-1.52-8.91-5.48-14.14-5.65l-85.05-.07c-13.88.22-27.8-.38-41.66.42m-420 17.11v8.75c-5.77.01-11.53.02-17.3-.01l.01 22.39 3.42-.03-.05-2.98 13.92-.01-.02 16.51 3.41-.04-.03-16.47 13.92.01-.05 2.98 3.42.03-.01-22.4-17.28.02v-8.76l-3.36.01m-68.23 14.94l2.06 2.39c7.4-3.45 14.34-7.98 19.84-14.05 5.53 6.14 12.5 10.76 19.97 14.19l1.72-2.92c-6.7-3.12-13.25-6.88-18.34-12.33-1.09-1.36-2.64-2.03-4.33-2.24-5.72 6.58-13.41 10.8-20.92 14.96m104.24-14.19l-.01 6.46c-2.22 0-4.44 0-6.65-.01l-.09 3.23h6.75v7.99l-7.55.02.01 3.2 7.31.01c-.39 7.45-2.63 15-7.78 20.57l2.52 2.19c3.98-4.52 6.63-10.05 7.78-15.96 2.4 2.72 4.72 5.52 6.74 8.54l2.06-2.81c-2.53-3.1-5.56-5.76-8.1-8.83-.05-1.24-.04-2.47.02-3.7l7.32.01.01-3.23c-2.34 0-4.67 0-7-.01v-7.98l6.33-.02v-3.21l-6.27.04-.08-6.5h-3.32m78.27-.32l.02 36.05c-.14 1.22.13 2.71-.79 3.7-2.49.93-5.2.21-7.77.2l.79 3.25c2.96-.08 6.04.41 8.93-.38 2.18-.99 2.1-3.75 2.22-5.77V157h-3.4m-65.59 1.79v26.43l3.2-.01v-23.2L475 162v23.21l3.4.02v-26.45l-19.39.01m29.78 0l.11 29.99 3.06-.09L492 162l13.79.02v26.19h3.42v-29.42a6949.61 6949.61 0 0 0-20.42 0m-366.25 2.7c-.13.24-.41.72-.55.96l-2.24-.52c-4.19-2.61-9.93-2.03-14.38-.29-6.56 1.56-11.23 7.48-13.78 13.46-.35 3.29-1.14 6.63-.48 9.94.91 7.9 6.94 14.71 14.41 17.17 4.36 1.59 9.32 1.59 13.69.04 5.73-1.94 10.66-6.3 12.92-11.97 2.51-5.36 1.93-11.45.28-16.96l-.82-1.47 1.26.09c.41-1.9 1.59-3.81 1.15-5.78-1.22-1.18-2.99-1.68-4.62-1.14l.19-1.1c-.46-1.35-.55-2.99-1.79-3.92-1.88-.09-3.58.75-5.24 1.49m392.25-.48v29.98l3.21.01v-30l-3.21.01m-278.26 2.96l-.05 9.84-9.25.07.13 25.05-79.36-.03v1.91l144 .04.01-1.94-61.91-.02.07-8.28c5.24-.17 10.49-.17 15.73.01-.35 1.54.44 3.84-1.15 4.84-1.93.4-3.92.16-5.87.19l.85 2.6c2.82-.38 7.82 1.07 8.69-2.68.61-7.21.12-14.49.27-21.73-3.08.02-6.16.02-9.24-.05l.01-9.95-2.93.13m32.31 3.08c-3.07.46-6.19.32-9.29.29v18.24c3.96.43 7.94-.16 11.91-.14.05.34.17 1.01.23 1.35l-1.95.75c1.86 1.88 3.49 5.84 6.63 3.56-.95-.94-1.9-1.86-2.89-2.75l-1.13-2.92c4.4-.06 8.81.54 13.21.14l-.06-18.25c-4.59.08-9.18 0-13.77-.02l1.22-3.31-3.14-.24-.97 3.3m-51.51-.49c1.96 1.65 3.88 3.35 5.8 5.05l1.92-2.31-5.79-4.76-1.93 2.02m11-1.48l-1.51 1.88c2.03 1.69 3.52 6.63 6.66 3.96-1.48-2.15-3.27-4.05-5.15-5.84m14.24 5.39l1.96 1.88 4.94-5.39-1.91-1.8-4.99 5.31m254.76-5.15c-.37 7.86 1.03 15.98-1.38 23.61-1.38 4.74-5.92 7.28-10.09 9.19l1.65 2.92c5.26-1.77 10.01-5.67 11.6-11.15 2.41-7.96 1.31-16.38 1.56-24.57h-3.34M467 166c-.05 7.29.65 14.88-2.28 21.77-2.06 5.09-6.97 8.14-11.74 10.33l1.87 2.85c4.47-2.25 9.07-4.97 11.57-9.5 4.26-7.74 3.86-16.89 3.79-25.45H467m-312.41 4.6c-5.92 5.74-5.52 16.72 1.08 21.8 4.89 3.86 11.99 3.73 17.29.74l3.53 3.02 2.37-2.65-3.12-2.8c3.91-5.43 4.47-13.37.19-18.75-4.8-6.7-15.62-7.03-21.34-1.36m34.07-.95c-6.29 4.96-7.01 15.4-1.59 21.26 4.69 5.16 12.95 5.7 18.79 2.23l3.82 3.08 2.07-2.89c-.86-1.16-3.92-2.02-2.32-3.78 3.66-5.62 3.32-13.7-1.38-18.61-4.82-5.42-13.79-5.56-19.39-1.29M354 169v3h19.99l.05-3.01L354 169m-137.75 7.14l5.84 4.96 1.87-2.39a158.32 158.32 0 0 1-5.71-4.64l-2 2.07m130.78 1.17L347 196.4h3.21l.01-3.39 8.05-.01.13 2.49 3.02-.12.04-18-14.43-.06m18.97.03v23.87l3.4.01.02-20.8 8.35-.03.05 11.77c-1.88.42-3.81.5-5.73.5l.85 3.1c2.71-.26 7.08.74 8-2.8.66-5.17.1-10.42.28-15.62a1930.41 1930.41 0 0 0-15.22 0m-145.12 6.93c-1.18 4.55-2.51 9.07-3.76 13.6l2.96.55 3.67-13.15-2.87-1m248.71 1.31c.26 4.4-.57 8.95.46 13.25 1.91 2.2 5.43 1.35 8.02 1.25 4-.39 3.51-5.27 4.07-8.16l-2.91-.88c-.3 2-.63 4-1.1 5.98l-5.46-.04c-.4-3.79-.31-7.6-.24-11.39-.71 0-2.13-.01-2.84-.01m-211.11 2.47c-.8 2.63-2.03 5.1-3.27 7.55l2.32.9c1.78-2.51 2.76-5.47 4.1-8.21-1.05-.11-2.1-.19-3.15-.24m5.35-.24c.51 3.13-1.3 7.35 1.6 9.62 4.04 1.08 8.4.64 12.56.49 3.52-.15 3.84-4.26 4.52-6.88l-2.7-.62c-.46 1.62-.69 3.37-1.64 4.8-3.42.74-7.03.61-10.47.15-1.89-1.94-.87-4.95-1.11-7.37l-2.76-.19m19.51.89c.55 2.64 2.83 4.65 4.18 6.97l2.3-1.55-4.84-6.81-1.64 1.39m217.06 3.24c2.97 2.57 5.74 5.39 8.2 8.47l2.51-2.47c-2.48-2.98-5.25-5.68-8.18-8.2l-2.53 2.2M87.97 250.01l.19 3.65 274.78-.09 628.91.06.21-3.58c-51.34-.34-102.69.01-154.04-.15-250.02.11-500.03-.1-750.05.11m469.55 63.77l2.9 1.98c1.46-2.39 2.83-4.85 4.1-7.34l4.49-.05c-.01 3.18-.13 6.36-.32 9.54-3.56.1-7.13.11-10.69.09v3.4l10.07-.01c-1.04 7.11-5.17 13.43-10.89 17.7l2.51 2.6c4.37-3.7 8.21-8.12 10.31-13.52 2.92 3.41 5.62 7 8.28 10.63l1.81-3.39-9.19-10.39.6-3.61 8.5-.02v-3.38l-7.87-.03c.15-3.2.29-6.4.57-9.59l6.98.05v-3.11c-4.65 0-9.29 0-13.94-.01l1.93-5.79-3.07-1.01c-1.82 5.32-3.89 10.59-7.08 15.26m54.79-14.75l.02 8.96-5.99.01-.01 3.22h5.83c-1.42 5.8-3.78 11.37-7.25 16.25l1.48 3.73c2.33-3.94 4.08-8.17 5.9-12.36l.04 23.82 3.1.03-.01-24c1.95 2.26 3.66 4.71 5.26 7.23l1.91-2.9c-2.36-2.81-4.8-5.54-7.22-8.3l.02-3.48 5.82-.04.01-3.17-5.86-.1.04-8.94-3.09.04m-101.2 2.87c2.62 2.46 5.42 4.72 7.89 7.34l2.27-2.29c-2.61-2.66-5.38-5.14-8.25-7.5a34.3 34.3 0 0 0-1.91 2.45m12.67-1.3v2.8l21.22.07c-2.22 1.61-4.55 3.06-6.95 4.37-2.3-1.25-5.36-5.21-7.57-1.81l6.18 3.89c-3.96.1-7.92.09-11.87.08l-.01 25.4 3.22-.01.01-8.18h7.97l.03 8.19h3.2l.02-8.18 8.22.02c-.11 1.64-.12 3.29-.43 4.91-1.63.71-3.46.15-5.15.2l.86 3.02c2.45-.41 6.55.68 7.52-2.39.39-7.65.03-15.32.15-22.98-3.49.01-6.97.02-10.45-.09 3.32-3.05 9.09-4.39 10.04-9.3l-26.21-.01m132.56.18l-.02 16.65 16.09-.02-.01-16.63h-16.06m18.61.01l.17 2.94 8.95-.06-.43 4.07-7.04.06.01 19.23 3.1-.11-.03-16.24h11.64l-.01 16.28 3.08.05.01-19.22-7.91-.03.83-4.11 8.36.02-.02-2.9-20.71.02m-50.35.99V305l21.8-.01v-3.21h-21.8m-42 2l-.05 36.83 3.32.15.24-3.39 9.2.05.01 2.98 3.31.09-.09-36.8c-5.31.16-10.63.07-15.94.09m-214.31 3.9l2.95 5.51 3.68-1.38-3.05-5.37-3.58 1.24m-277.06 1.3c1.54 2.27 3.05 4.56 4.49 6.9l3.84-2.15-4.88-6.73-3.45 1.98m41.79-2.42c-1.04 3.8-2.44 7.5-4.09 11.07l3.19 2.33 2.22-4.94 2.23.17-.03 6.69a164.75 164.75 0 0 1-7.37.17l.03 3.96 6.99.03c-.4 5.07-3.5 9.27-7.17 12.54l2.59 3.48c3-2.54 5.45-5.66 7.28-9.14l4.75 6.19 3.08-3.11-6.64-7.27.09-2.63 5.72-.17.03-3.83-5.49-.09.29-7 4.52.07.06-4.1c-3.11 0-6.22.02-9.33-.01l.97-3.9-3.92-.51m56.03.21l-.11 7.02-3.49-.05-.04 3.81 3.47.33c-.29 5.49-.23 11.28-2.8 16.29l-2.2-.36c-.27-8.48.03-16.98-.16-25.47l-13.59.09-.02 26.52c-3.01-.07-1.75 2.86-1.78 4.71l14.21-1.54c1.09 1.38 2.22 2.73 3.37 4.07 1-1.4 2.03-2.79 2.63-4.41a94.1 94.1 0 0 1 3.36.03l-1.18.32c.05 2.42 1.12 3.48 3.2 3.18 2.66.09 6.47-.18 6.85-3.57.8-7.95.45-15.99.67-23.98-2.78-.02-5.55-.01-8.32.02l.06-7.01c-1.38-.01-2.75-.01-4.13 0m96.06.33l1.51 4.01c-4.99.21-9.98.08-14.96.11l.01 4.18 33.69-.05.06-4.13h-13.56l-1.67-4.55-5.08.43m28.25-.09l-2.66 3 5.31 4.85 2.98-3.33-5.63-4.52m14.99-.02l.83 3.71-9.56-.03-.04 3.67c2.26 0 4.52.02 6.78.1-1.86 2.42-4.12 4.53-6.72 6.14l1.4 3.59c5.83-.7 11.71-.72 17.58-.81l2.28 2.27 3.23-2.44c-2.23-2.47-4.3-5.1-6.82-7.3l2.01-1.58 4.61.08.1-3.72c-2.99-.01-5.97-.01-8.95.11-.74-1.36-1.39-2.76-2-4.17l-4.73.38m46.84 6.25c-2.49.58-5.11.14-7.64.24l.04 3.8 5.67-.07c.08 1.51.06 3.04-.11 4.55l-5.22-.06-.04 3.78 5.24-.1.42 4.54-6.89.13.02 3.76 6.72.05c.08 2.74.08 5.48.04 8.22l4.07-.09-.07-8.09c2.2-.07 4.41-.09 6.63-.1l-.05-3.8h-6.64c.01-1.25.07-2.5.18-3.75 1.33-1.6 3.86-.46 5.67-.81v-3.68l-5.75-.23.03-4.19 6.02-.14.04-3.69-3.76-.05c1.03-1.92 2.11-3.8 3.18-5.69l-3.6-1.32c-1.44 2.22-2.18 5.02-4.2 6.79m-274.6-5.14v3.27l4.16-.31c-2.13 3.02 1.87 3.54 3.66 4.84l-7.52.07-.05 19.51 3.96.09.09-5.3 5.03.01.19 4.93h3.9l.09-4.97 4.64.05.99 1.8c-1.5.58-3.1.7-4.69.8l.64 2.81c2.53-.23 6.69.64 7.41-2.73.55-5.63.05-11.31.22-16.96l-8.02-.09 7.54-4.27.06-3.55c-7.43-.07-14.87.09-22.3 0m108.82.79l.55 4.24c4.26-.04 8.53-.5 12.8-.3l-.08 4.89c-4.31.09-8.61.04-12.91.06l.02 4.09 12.9.09v5.08c-5.16.14-10.31.08-15.47.09l-.06 4.11 15.56.07c-.08 1.64.04 3.32-.35 4.93-2.1 1.98-5.3.8-7.9 1.08l1.11 4.27c3.3-.28 6.97.52 9.98-1.16 2.52-2.31 1.5-6.16 1.78-9.2l14.68-.01-.02-4.09c-4.91 0-9.83.03-14.74-.08l.03-5.11c3.95-.14 7.91-.09 11.87-.06v-4.1c-3.96 0-7.93.02-11.89-.01.17-1.69-.42-3.61.43-5.13 3.91-.58 7.89-.39 11.83-.63-.48-1.34-.38-3-1.33-4.1-9.59.54-19.19.94-28.79.98m140.57-.57l.09 3.22 3.81.09-.07 3.31-4.72.06-.01 3.34c1.58.26 3.96-.71 4.57 1.36-.01 2.45-2.16 2.26-3.97 2.32-.1 1.98.27 3.69 2.71 3.47-1.15 3.6-4.95 6.7-2.72 10.69l2.62-2.48.08 7.82c1.87-.01 4 .19 4.15-2.24l4.47.04.94 2.04 3.35-.05.02-13.22c-3.41.07-6.83.09-10.24-.13l1.14-2.85 8.83.09-.02-6.67 1.76-.2c.31-1.81-.26-3.06-1.69-3.76l-.09-6.3-15.01.05m-202.54 32.4l4.21.01-.04-3.49c2.18-.11 4.37-.16 6.56-.18l.12 3.6 4.24-.07-.04-30.9c-5-.02-9.99.01-14.99.01l-.06 31.02m246.84-30.45c-3.97 1.94-5.77 6.47-6.23 10.63-.51 5.01.2 10.54 3.5 14.54 3.46 3.87 10.23 3.67 13.5-.35 2.91-3.65 3.57-8.54 3.32-13.06-.09-3.79-1.38-7.72-4.18-10.37-2.61-2.47-6.71-2.74-9.91-1.39m23.19.44c-3.75 2.39-5.2 7-5.51 11.21-.27 4.69.47 9.83 3.59 13.52 3.48 3.87 10.24 3.66 13.51-.36 3.14-3.89 3.59-9.18 3.24-13.98-.22-3.46-1.51-6.97-4.07-9.37-2.82-2.7-7.46-2.91-10.76-1.02m18.97 1.49l.01 4.87 5.5-1.65.07 22.53 5.01.1-.01-28.32c-3.7-.09-7.16 1.24-10.58 2.47m185.58 1.11v3.38l11.76-.01-.04 20.48c0 3.32-4.19 1.79-6.31 2.09l.63 2.99c2.94-.31 7.37 1.14 8.83-2.36.77-7.69.11-15.47.33-23.2l11.78.01-.08-3.41-26.9.03m62-.31c-.14 4.88.37 10.04-1.69 14.61-1.41 3.19-4.74 4.74-7.65 6.25l1.99 2.8c3.09-1.75 6.53-3.53 8.15-6.88 2.64-5.17 2.18-11.16 2.17-16.78h-2.97m-412.6 10.25l2.67 3.78c3.95-2.49 7.81-5.13 11.53-7.95l-2.98-3.33a78.05 78.05 0 0 1-11.22 7.5m22.89-7.51l-2.68 3.27a324.11 324.11 0 0 1 11.24 7.55 166.59 166.59 0 0 1 2.61-3.92c-3.63-2.45-7.41-4.65-11.17-6.9m215.28-.15l-.01 2.82h7l.06 14.29c-2.81 2.19-5.15 4.9-7.01 7.93l2.58 2.11c1.56-2.59 3.43-4.99 5.75-6.93 2.51 2.24 4.96 5.04 8.51 5.45 8.47.97 17.02.71 25.54.74l.73-3.47c-8.19.29-16.42.52-24.6-.03-3.62-.12-6.32-2.63-8.53-5.22.1-5.92.09-11.83.01-17.75a372.88 372.88 0 0 1-10.03.06m-197.15 1.55c-.9.85-1.72 1.77-2.56 2.68l5.37 4.89 2.95-3.4c-1.91-1.39-3.58-3.22-5.76-4.17m-222.23 1.71v4.23l3.49.02c-.06 3.27.19 6.55-.14 9.82-.78 1.7-2.37 2.83-3.63 4.17l1.78 4.64c1.35-1.64 2.74-3.24 4.14-4.82 1.9 1.94 4.19 3.71 7.01 3.88 6.96.7 13.99.29 20.98.44l1.27-3.95c-7.37-.03-14.8.56-22.13-.34-2.08-.16-3.54-1.71-5-2.99-.52-5.03-.3-10.09-.29-15.13l-7.48.03m536.22 2.2c-1.67 5.45-3.47 10.91-6.51 15.78l2.96 1.8c3.09-5.47 5.21-11.41 6.67-17.51l-3.12-.07m14.19.62c2.22 5.64 3.74 11.53 5.22 17.4l2.94-1.22c-1.2-5.94-3.16-11.68-4.99-17.44l-3.17 1.26m13.36-1.06l.06 3.08 9.54-.01c.02 3.92.07 7.84-.1 11.76-1.51-1.36-2.89-2.83-4.13-4.42l.52-4.81-2.93-.24c-.27 5.16-1.76 10.16-4.15 14.73l2.4 2.15c1.32-2.62 2.47-5.33 3.45-8.1 2.71 2.58 5.49 5.5 9.38 6.09 8.95 1.49 18.09 1.17 27.13 1.14 1.85.36 1.38-2.36 2.1-3.3-10.19-.09-20.59.96-30.62-1.34l.06-5.33 6.53-.02v-2.98l-6.55-.02.01-5.31 7.8-.03-.1-3.07-20.4.03m-406.95 1.58l-.03 4.9 18.52-.03.02-4.9-18.51.03m32.11 3.2c1.77 2.7 3.66 5.31 5.81 7.72-4.25 2.24-8.88 3.56-13.54 4.63l1.85 4.48c5.38-1.33 10.6-3.27 15.4-6.05 4.52 2.93 9.67 4.68 14.9 5.83l2.14-4.45c-4.71-.86-9.36-2.18-13.57-4.48 2.08-2.45 3.88-5.12 5.47-7.91l-4.14-2.04c-1.34 2.38-2.6 4.9-4.65 6.76-2.68-1.08-3.9-4.38-5.72-6.54l-3.95 2.05m42.44.25c.38 5.11-.22 10.68-4.34 14.24l3.29 2.35c4.73-4.21 5.23-10.68 4.93-16.6l-3.88.01m7.02-.01l-.01 15.52 3.91.03-.01-15.5-3.89-.05m7.06.01c.07 4.41-.29 8.86.16 13.27.59 2.73 4.1 2.47 6.25 2.19 2.37-1.08 2.47-3.96 2.85-6.2.8-2.02-.53-3.18-2.39-3.59l-.89 6.4-2.14-.21v-11.81l-3.84-.05m-25.15 14.88l4.1 1.3c1.3-4.35 2.29-8.8 3.63-13.14l-4.27-1.26c-1.04 4.4-2.13 8.78-3.46 13.1m376.34-10.94c2.58 2.12 4.98 4.44 7.24 6.89l2.37-2.35c-2.41-2.44-4.95-4.74-7.58-6.93l-2.03 2.39m180.51 42.14c-1.46 5.33-3.75 10.42-6.82 15.01l2.79 2.06c1.53-2.37 2.92-4.83 4.17-7.36l4.5-.06c0 3.19-.12 6.37-.33 9.56-3.56.08-7.12.08-10.67.07v3.4l10.08-.01c-1.05 7.1-5.17 13.42-10.87 17.69l2.38 2.61c4.48-3.61 8.27-8.11 10.4-13.51 2.94 3.39 5.63 6.99 8.28 10.61l1.82-3.39-9.18-10.36.6-3.63 8.49-.02v-3.38l-7.87-.03.56-9.59 7 .05-.02-3.11c-4.64 0-9.29 0-13.92-.01l1.94-5.88-3.33-.72m61.71.06l-.37 7.81-17.7.01.04 36.12 3.4-.08.07-33.03c4.61.09 9.23.05 13.85.07-.7 3.58-1.31 7.28-3.18 10.47-2.13 3.8-5.53 6.62-8.81 9.39l2.4 2.5c4.89-3.38 8.82-7.99 11.19-13.47 4.02 3.95 7.65 8.27 10.9 12.88l2.5-2.53c-3.7-5.01-7.99-9.53-12.46-13.84l.88-5.41 13.73-.04c.19 8.47.04 16.95.11 25.43-.19 1.19.18 2.73-.8 3.65-2.95.63-5.98.18-8.95.07l1.02 3.43c3.3-.09 6.69.39 9.93-.4 2.14-1.07 2.19-3.77 2.21-5.83L949 379.6c-5.61-.01-11.21 0-16.81 0l.25-7.82h-3.37m45.88.37l1.73 3.64c-6.12-.01-12.23 0-18.34-.01l-.02 8.65h3.34l.06-5.46 32.53.03c.04 1.71.02 3.43.3 5.12l3.1.26.02-8.6-17.4.01-1.75-4.23-3.57.59m-161.09 2.38c2.67 2.62 5.54 5.02 8.13 7.73l2.27-2.29c-2.53-2.62-5.24-5.06-8.07-7.35l-2.33 1.91m12.92-.93v2.8l21.24.1c-2.24 1.58-4.57 3.02-6.96 4.34-2.34-1.25-5.4-5.25-7.61-1.8l6.21 3.87c-3.96.11-7.92.1-11.87.09l-.01 25.4h3.21l.03-8.19h7.96l.03 8.19h3.21v-8.18l8.23.03c-.37 1.71.54 4.22-1.26 5.29-1.45-.02-2.88-.1-4.3-.22l.83 3.05c2.44-.42 6.59.69 7.53-2.41.39-7.64.03-15.31.15-22.96-3.49.01-6.98.02-10.46-.09 3.32-3.05 9.12-4.39 10.03-9.31-8.73-.01-17.46 0-26.19 0m58.83 3.18l-.06 36.84 3.32.14.25-3.4 9.19.06.02 3.12 3.21-.19c.36-12.16-.03-24.33.18-36.49-5.38-.15-10.75-.06-16.11-.08m-789.55 3.98l-1.43 4.98-4.05.06.06 2.58 3.36.01c-1.25 3.86-2.86 7.65-3.21 11.74l6.34-.03.29 5.26c-2.36.29-4.72.51-7.08.73l.18 2.81 6.52-.75c.23 2.55.3 5.11.28 7.68l2.61.08.22-7.93c1.97-.37 4.71-.28 4.36-3.13l-4.49.1.06-4.78 3.36-.01.14-2.58-3.51.05-.01-6.55-2.69-.1c-.04 2.24-.13 4.48-.32 6.72l-3.18-.06c.83-3 1.52-6.08 2.94-8.88 2.33-.81 4.91-.34 7.34-.49l-.02-2.41-6.61-.23 1.32-4.63-2.78-.24m78-.02c-.29 2.37-.61 4.75-1.04 7.12l-4.74.28.16 2.59 4.14.1-2.53 10.78c2.08 1.66 4.08 3.41 6.03 5.22-2.39 2.52-5.05 4.77-7.85 6.84l2.42 2.1c2.65-2.02 4.95-4.45 7.43-6.67 2.05.51 3.4 2.73 5.01 4.09l2.37-2.18-5.44-4.78c2.84-5.66 3.91-12 4.13-18.28h-8.01l1.05-6.96-3.13-.25m33.86 9.23l1.24 2.83c3.46-3.2 6.76-6.62 9.3-10.62l-2.47-.95c-2.68 2.92-5.07 6.11-8.07 8.74m10.84 2.15l-3.06-1.64c-2.21 4.11-5.29 7.61-8.25 11.17l.52 3.04c1.35-1.29 2.67-2.61 3.99-3.94l.01 15.26 2.85-.03c.07-6-.17-12.01.11-18 .09-2.13 1.68-3.69 2.86-5.3l1.52 2.52 3.27-2.31.08 2.28 5.56-.03-.09 4.61a426.65 426.65 0 0 0-9.47.07l.02 2.49 9.39-.02c.29 3.36.27 6.74.13 10.11l-5.23.37.86 2.53c2.24.16 5.55.83 6.84-1.59.86-3.71.28-7.58.49-11.36l9.35-.04.03-2.57-9.27.03-.22-4.59 5.58.04.01-2.72c-4.3.01-8.61.08-12.92-.06 1.85-2.62 4-5.01 5.93-7.57 2.95 3.87 6.33 7.44 10.56 9.93l1.63-2.62c-4.27-2.9-9.54-5.99-10.71-11.42l-2.3.29c-2.7 4.25-6 8.07-10.07 11.07m196.13-10.87c-.31 10.09.33 20.23-.36 30.29-2.18 1.3-4.83.59-7.21.69l.51 3c3.17-.18 9.04 1.23 9.63-3.29.46-10.22.05-20.47.19-30.7l-2.76.01m13.58-.31l.09 6.9-3.95.31c-.59 2.76 1.9 2.57 3.84 2.76.03 2.33.18 4.68-.09 7.01-.92 1.2-2.59 1.27-3.87 1.89l-.05 2.94 3.95-1.21c.13 3.56.12 7.13.04 10.69l-3.95.54.63 2.58c2.1.14 5.11.14 5.79-2.39.53-4.29.09-8.63.4-12.93 1.78.12 3.53.49 5.25 1.02-.16 4.86-.03 9.71-.07 14.57l1.94.39.98-1.83c4.54-.3 9.1-.1 13.66-.07.64 1.2 1.76 1.76 3.08 1.99.17-5.16.1-10.32.06-15.48l-19.32-.08c2.83-1.68 5.49-3.64 7.92-5.86l.34 4.55 2.38-.18.03-4.29c3.08 2.22 6.04 4.73 9.66 6.07l1.67-1.87c-3.28-1.46-6.73-2.83-9.26-5.48 2.99-.11 5.99-.09 9-.17-.53-3.38-4.72-1.49-6.94-1.79.13-.54.41-1.61.55-2.14l.76.57c.87-1.15 1.93-2.28 2-3.8-2.34-.32-3.63 2.07-5.26 3.3l2.06.46c-1.22.92-2.6 1.83-4.24 1.62l.09-6.37 9.27-.56-.21-2.21c-7.27.62-14.6.22-21.83 1.21l1.67 1.57 2.04.19-1.24 2.25c1.21 1.13 2.49 2.17 3.72 3.3 1.93-1.62-.14-3.4-1.66-3.96 1.43-1.63 3.51-1.76 5.55-1.8-.05 2.01.2 4.08-.24 6.08-3.29.27-6.59.11-9.87.11l.11 1.98 8.28.19c-2.61 2.29-5.68 3.95-8.83 5.39l-.7-2.28-2.55.81.02-6.27c1.71-.38 3.65-.69 3.32-2.96l-3.35-.27.02-7.06-2.69.07m39.61 0l-.07 7.22h-4.2l.03 2.81 4.19.05-.04 7.67-4.5.99-.11 3.1 4.66-1.12-.07 10.55-3.96.33.13 2.92c2.17-.13 4.32-.46 6.43-1 .74-4.51.48-9.09.47-13.63l3.71-1.02.08-2.77-3.8.79.02-6.81 3.88-.13-.01-2.68-3.87-.14-.01-7.07-2.96-.06m117.85-.17v2.88a1177.76 1177.76 0 0 0-14.56.03l-.11 2.11c4.82.21 9.67-.28 14.48.23l.44 2.45-10.98.02c-.24 6.12-.04 12.25-.18 18.37-1.87.08-3.73.27-5.48.96.94.93 2.06 1.39 3.36 1.38l31.4.02.57-1.98-4.87-.39-.12-18.35a383.66 383.66 0 0 0-10.73.04l-.11-2.7 14.88-.02-.3-2.16-14.6-.02-.03-2.82-3.06-.05m28.37.03l-.81 7.13-3.9.15v2.69l3.35.26c-.64 3.47-1.33 6.93-2.28 10.33 1.8 1.71 3.65 3.38 5.52 5.03-1.93 2.63-4.33 4.87-6.77 7.02l2.18 2.19c2.42-2.27 4.64-4.76 7.17-6.91l3.9 3.69 2.03-2.37-4.82-4.13c2.46-5.61 3.6-11.69 3.57-17.8l-7.15-.05 1.06-6.98-3.05-.25m112.07.33l.05 10.02-12.76.06a132.07 132.07 0 0 1 .05-9.12l-3.09-.3c-.54 10.67 2.23 22.76-4.79 31.94l2.65 2.22c2.51-3.87 4.41-8.14 4.97-12.75l14.64-.04c-.12 4.09-.12 8.19-.06 12.29l3.14-.01-.13-14.97c-5.87-.17-11.79.47-17.61-.37l.24-6.24 24.74-.05.07-2.53c-3.04 0-6.08-.03-9.11-.25l.04-10.01-3.04.11m231.36 8.69l1.56 2.59c5.43-2.31 10.54-5.42 15.04-9.25l-1.73-2.15a84.73 84.73 0 0 1-14.87 8.81m25.42-8.87c-.21.89-1.86 2.46-.22 2.98 4.52 2.33 8.59 5.45 12.98 7.96l2.31-1.84a97.83 97.83 0 0 0-15.07-9.1m-664.12 1.52c1.14 3.32 3.09 6.29 4.66 9.43l2.91-1.6-5.47-9.35-2.1 1.52m14.75-.6c-.36 7.02.43 14.46-2.74 20.99-2.37 4.94-7.35 7.74-11.81 10.52l1.97 2.53c4.34-2.34 8.26-5.41 11.34-9.28 2.55 2.44 4.55 5.36 6.68 8.17l2.64-2.39c-2.42-3-5.19-5.72-7.39-8.89 2.03-7.05 2.25-14.41 2.34-21.7l-3.03.05m32.93-.47c.18 7.24.02 14.73-2.78 21.53-1.67 3.96-4.66 7.12-7.62 10.15l1.92 2.82c5.07-4.9 8.7-11.13 10.41-17.97 1.47 6.68 5.12 12.59 9.83 17.47l2.34-2.68c-4.06-3.66-7.44-8.16-9.04-13.44-2.12-5.78-1.7-11.99-2.16-18.01l-2.9.13m283 .77L649.7 416l9.68.01.11-3.18-6.49.02.03-27.65 6.56-.17-.16-2.83-9.72-.03m17.42.16c-.27 11.21-.26 22.42-.02 33.62l2.48-.06.81-1.8c8.01-.21 16.08-.3 24.1.01l1.04 1.79 2.32.07-.05-33.58c-10.23-.04-20.45.09-30.68-.05m77.35-.09l.19 3.05 6.22-.12.01 27.7-6.29-.05-.11 3.14 9.77-.04.02-33.73-9.81.05m-638.5.97l.08 2.58 12.36.05c-3.5 5.17-8.95 8.3-14.51 10.81l1.91 1.94c3.33-1.13 6.29-3.09 9.28-4.89 2.77 1.5 5.43 3.2 8.01 5.02l1.69-2.17c-2.51-1.65-5.04-3.24-7.61-4.78 2.15-2.5 4.67-5.05 4.74-8.57-5.31-.01-10.63 0-15.95.01m26.74-.24c-.67 10.05 1.84 20.96-3.42 30.16l1.97 2.81c5.86-9.01 3.8-20.11 4.4-30.23 6.57.15 13.15.09 19.72.1.12 7.89-.25 15.8.39 23.69l-2.37-.83c-1.44-3.16-4.12-5.56-5.46-8.74 1.55-3.61 4-6.75 5.75-10.26l-2.51-1.44c-1.66 3.11-3.42 6.16-5.26 9.16-2.26-2.66-4.31-5.5-6.34-8.35l-2.74 1.12c2.31 3.34 4.82 6.56 7.15 9.89-2.46 3.39-5.22 6.56-8.26 9.45.7.71.95 2.12 2.07 2.29 3.06-2.68 5.26-6.16 8.06-9.1l5.98 8.82c1.34-1.19 3.08-1.56 4.77-1.96-1.47 2.5 1.25 6.86 4.38 5.66 3.01-2.32 2.35-6.56 2.73-9.9l-2.11-.08c-.25 2.4-.55 4.79-.95 7.18-2.22-.85-1.9-3.56-2.21-5.47-.48-8-.06-16.02-.26-24.03-8.5.17-16.99.06-25.48.06m177.38-.46c-.77 9.51.9 19.22-.98 28.6l1.63 2.4c3.91-3.11 8-5.96 12.08-8.82l-.61-3.53a214.05 214.05 0 0 1-9.04 6.55c-.18-8.39-.08-16.78-.08-25.17l-3-.03m37.98.23l.02 33.03 2.83.08.09-30.52 5.8.01-3.15 9.78c2.1 2.45 4.02 5.49 3.26 8.89-.84 1.98-3.21 1.29-4.89 1.63l.46 2.96c2.24-.47 5.46.05 6.67-2.43 1.62-3.97-.2-8.31-2.73-11.44 1.3-3.93 3.08-7.77 3.35-11.95l-11.71-.04m38.43.01l-.04 2.72 6.29.22c-1.36 5.52-4.11 10.53-7.55 15l1.64 2.33c2.39-2.79 4.15-6.04 6.29-9 2.43-.61 4.96-.34 7.44-.37a91.41 91.41 0 0 1-2.66 8 80.96 80.96 0 0 1-5.5-3.86l-1.45 2.14c1.69 1.36 3.45 2.66 4.95 4.24-1.86 4.05-5.92 6.59-9.37 9.22l2.12 2.52c8.29-5.67 14.58-14.72 14.89-25l-9.22.12 1.56-5.5c3-.03 6.01-.03 9.02.05l.1-2.83c-6.17-.01-12.35.01-18.51 0m90.14-.01l.02 33.25 2.73.02.03-17.75 3.55-.29-1.41 1.7c1.33 3 2.85 5.92 4.75 8.6-1.97 1.86-4.22 3.39-6.55 4.76l1.45 2.39c2.46-1.47 4.84-3.08 7.08-4.87 2.55 1.48 4.83 3.49 7.65 4.46l1.84-2a211.55 211.55 0 0 1-7.06-4.33c2.34-4.11 5.1-8.2 5.37-13.09-5.28-.29-10.57.18-15.85-.14-1.97-2.74-.39-6.86-.89-10.12 4.5-.06 9.01-.02 13.52.05l-.89 4.47-7.95.18.53 2.52c2.8-.08 5.66.17 8.42-.49 3.38-1.72 2.07-6.28 2.61-9.35-6.32.03-12.64-.01-18.95.03m27.19.83l-.21 2.64 26.83-.01c-3.95 2.89-8.09 5.51-11.91 8.57-.06 5.18.43 10.42-.18 15.58-1.59 2.83-5.89.93-8.59 1.45l.51 3.33c3.61-.45 9.07 1.18 11.07-2.79.9-5.41.19-10.95.46-16.41l12.87-9.14.02-3.47c-10.29.24-20.6-.26-30.87.25m121.7-.49l.04 2.93 13.3.05c-2.92 3.1-7.29 5.87-6.28 10.81l-8.74.02-.08 2.93h8.93c.03 4.08.27 8.18-.38 12.22l-5.93.12.3 3c2.9-.18 7.46.91 8.75-2.6.76-4.18.22-8.47.38-12.69l7.92-.09.05-2.83-7.99-.09c-.87-4.89 4.18-7.33 6.7-10.71l-.04-3.08-16.93.01m-357.19.43l.1 2.82 26.2.02.06 21.68c-.12 1.48.14 3.53-1.68 4.09-2.42.34-4.87.1-7.29.05l.74 3.14c3.33.02 6.67-.15 9.94-.81.52-1.45 1.22-2.89 1.25-4.45.3-7.94-.19-15.9.22-23.83l4.6.19.25-2.95-34.39.05m-81.09 31.03l2.73.24.35-3.6 7.49.03.34 3.08 2.68.03.03-29.61c-4.48.01-8.96.08-13.44-.04-.25 9.95-.01 19.91-.18 29.87m219.71-29.17l.04 21.43 2.81-.02.08-21.24-2.93-.17m567.31 3.95c-5 4.84-11.4 7.87-17.79 10.43l1.59 2.67c2.15-.68 4.26-1.53 6-3.03.32 5.42.26 10.85.25 16.27l3.05.05.11-2.03c6.88.1 13.78-.23 20.67.12.81 1.66 2.39 1.99 4.06 2.05l.01-15.78 5.44 2.34 1.65-2.63c-5.14-2.36-10.47-4.53-14.95-8.06-1.89-1.47-3.45-3.32-5.39-4.7-2.04-.66-3.36 1.15-4.7 2.3m-161.69-.73l-.01 2.82 7.01.01.03 14.33c-2.83 2.16-5.16 4.87-6.98 7.92l2.58 2.06c1.69-2.39 3.09-5.31 5.83-6.67 1.93 1.34 3.47 3.2 5.56 4.33 2.92 1.34 6.22 1.14 9.37 1.38 6.33.39 12.68.18 19.02.23l.74-3.47c-8.2.29-16.44.52-24.62-.03-3.62-.13-6.33-2.64-8.51-5.25.11-5.9.06-11.8.04-17.7l-10.06.04m-565.07 2.96l.11 3.72 3.64-.02.22-3.71-3.97.01m24.74.23l.04 17.47h2.8l.4-2.77c4.19-.25 8.38.3 12.56-.03l-.01-14.64-15.79-.03m-166.56 8.88l.06 2.61 7.14-.07a212.33 212.33 0 0 1-.06 8.37l-9.02-.03.07 2.67 20.71.03-.01-2.67a248.87 248.87 0 0 0-8.64.06c-.13-2.81-.14-5.63 0-8.43l7.08.01.03-2.6c-5.79-.01-11.58 0-17.36.05m111.28 11.02l2.15 1.69c2.01-2.48 3.93-5.02 5.74-7.63l-2.12-1.17c-2.15 2.17-3.88 4.72-5.77 7.11m16.5-5.27c2.08 2.18 4.09 4.43 6.12 6.67l1.61-2.1-5.5-6.45-2.23 1.88m14.08 1.89l-.16 3.6 4.12.08-.03-3.67-3.93-.01m298.95-.45c.03 2.06-.27 4.5 2.43 4.84-.87 1.67-1.87 3.28-2.95 4.84 4.76-.49 5.11-5.75 4.96-9.48l-4.44-.2m34.99 2.66c-3.45 1-6.83 2.2-10.3 3.14l1.32 2.09c4.19-.83 8.18-2.46 12.19-3.89-.71-1.15-1.84-2.06-3.21-1.34m9.96-.28l-1.05 1.58 12.41 4.05.62-2.34c-3.87-1.46-7.86-2.82-11.98-3.29z"/><path d="M396.42 168.42l13.94.06.01 13.02c-4.65.17-9.3.1-13.95.08v-13.16zm17.22.05c4.65-.12 9.29-.07 13.94-.05v13.16c-4.66.01-9.32.1-13.97-.1.09-4.33.08-8.67.03-13.01zm-151.26 6.47c6.75-.24 13.52-.07 20.28-.03l-.01 3.06c-6.77-.04-13.54.07-20.3-.1l.03-2.93zm87.85 5.45l8.09.03.02 9.34-8.12.02.01-9.39zm309.2 123.02l9.88.01.04 4.34-9.97.01.05-4.36zM586 307h9.33l-.01 27.32-9.32.01V307zm73.41 3.42l9.98.09-.02 3.99-9.96.08v-4.16zM528 313h8v4.33h-8V313zm11.22 0l8.11.01-.02 4.31-8.08.01-.01-4.33zm-387.61.69l6.7.01-.07 19.24h-6.6l-.03-19.25zm-37.64 5.37l5.72.13-.69 2.64-4.93-.08-.1-2.69zm60.18 1.51l5.68.19.12 5.13-5.86.01.06-5.33zm353.87-.36h7.96l.03 4.11-8.02.01.03-4.12zm11.17.01l8.17.02-.06 4.07-8 .08-.11-4.17zm-183.06 11.12l5.43.03.06 4.58-5.53.07.04-4.68zM889 380h9.33l-.01 27.32-9.31.01L889 380zm-58 6h8v4.33h-8V386zm11.22 0h8.11l-.01 4.32-8.09.01-.01-4.33zm122.09 13.2c5.49-1.41 9.69-5.54 13.7-9.31 3.88 4.29 8.77 7.42 13.84 10.11-7.98.04-15.97-.08-23.95.08-1.33.27-2.46-.38-3.59-.88zm-791.17 1.45l2.6-9.94 5.34.06c-.47 4.62-1.45 9.19-3.29 13.46-1.58-1.16-3.13-2.36-4.65-3.58zm657.88-7.44h7.97l.01 4.12c-2.67 0-5.34 0-8.01-.01l.03-4.11zm11.19.01l8.15.02-.06 4.08-8.05.03-.04-4.13zm-394.5 9.57c1.97-.37 3.99-.27 5.99-.29l.03 3.61-6.22.25.2-3.57zm519.67.24L989 403l-.01 7.79c-7.2-.02-14.4 0-21.59-.01l-.02-7.75zm-389.2 1.19l18.61.01.12 2.7h-18.86l.13-2.71z"/></g><path fill="#e1e1e1" d="M1029.11 126.68c3.78 7.14 8.41 14.09 10.06 22.13 1.19 5.37-.59 10.79-.49 16.19l.02 246.03c1.16 7.52.76 15.12 1.11 22.7l-1.92-1.7c.48 6.56-1.92 12.87-5.76 18.1-3.12 4.18-6.08 8.53-9.66 12.33-3.09 1.89-6.93 2.07-10.03 3.99-6.73 4.16-14.96 3.42-22.53 3.55-207.29.08-414.59-.08-621.89.08-13.01.07-26.03-.41-39.04-.01-76-.31-152 .22-228-.13-9.98.08-20.42.94-29.84-3.02-6.65-1.87-13.43-4.54-18.02-9.93-2.91-3.95-6.15-7.82-7.59-12.6-1.57-5.06-4.02-9.97-4.26-15.33l-.01-254.07c.08-6.2-.22-12.41.32-18.6.4-4.84-.36-9.89 1.44-14.52 1.37-3.31 3.29-6.37 5.3-9.33.47 4.75-2.91 8.82-3.36 13.48-.75 7.6-1.1 15.25-1.01 22.89l.04 242.06c.15 5.68.25 11.36.18 17.04-.16 4.53 3.43 7.87 4.76 11.97 2.27 6.44 6.29 12.19 11.34 16.77 9.55 7.38 21.8 10.23 33.71 10.04h859.98l40.04-.11c8.46-.07 16.29-3.92 23.38-8.21 4.68-2.65 7.31-7.52 10.79-11.42 2.52-2.82 3.5-6.56 5.13-9.9 1.36-2.88 2.82-5.87 2.71-9.15l-.09-254.02c.23-7.68-.44-15.34-.92-23-1.02-5.48-1.82-11.22-4.88-16.01-1.63-2.48-2.53-5.52-1.01-8.29z"/><path fill="#6db0b7" d="M122.54 161.49c1.66-.74 3.36-1.58 5.24-1.49 1.24.93 1.33 2.57 1.79 3.92-2.16-1.29-4.61-1.85-7.03-2.43z"/><path fill="#e36a67" d="M91.59 175.1c2.55-5.98 7.22-11.9 13.78-13.46 4.79.38 9.58.33 14.38.29l2.24.52c-1.02 1.97-1.84 4.03-2.67 6.09-3.83-1.69-8.19-1.55-12.22-.79-6.11 2.01-9.71 8.39-9.95 14.6-2.19-2.14-4.11-4.55-5.56-7.25z"/><path fill="#ae6c6e" d="M105.37 161.64c4.45-1.74 10.19-2.32 14.38.29-4.8.04-9.59.09-14.38-.29z"/><path fill="#848d9b" d="M121.99 162.45l.55-.96c.14 2.79.05 5.71-1.48 8.16l-1.74-1.11 2.67-6.09z"/><path fill="#3bafd0" d="M122.54 161.49c2.42.58 4.87 1.14 7.03 2.43l-.19 1.1-.11.2-4.44 7.05-4.73-.79.96-1.83c1.53-2.45 1.62-5.37 1.48-8.16z"/><path d="M236.53 163.97l2.93-.13-.01 9.95 9.24.05c-.15 7.24.34 14.52-.27 21.73-.87 3.75-5.87 2.3-8.69 2.68l-.85-2.6c1.95-.03 3.94.21 5.87-.19 1.59-1 .8-3.3 1.15-4.84-5.24-.18-10.49-.18-15.73-.01l-.07 8.28 61.91.02-.01 1.94c-48-.09-96 .12-144-.04v-1.91l79.36.03c-.25-8.35-.07-16.7-.13-25.05l9.25-.07.05-9.84m-6.36 12.56l-.03 4.34 15.7.01-.04-4.37-15.63.02m-.02 7.1v4.27l15.66.01v-4.3c-5.22-.16-10.44-.17-15.66.02zm-12.82-17.07l1.93-2.02 5.79 4.76-1.92 2.31-5.8-5.05zm46.5 21.25l2.76.19c.24 2.42-.78 5.43 1.11 7.37 3.44.46 7.05.59 10.47-.15.95-1.43 1.18-3.18 1.64-4.8l2.7.62c-.68 2.62-1 6.73-4.52 6.88-4.16.15-8.52.59-12.56-.49-2.9-2.27-1.09-6.49-1.6-9.62zm64.52 119.18l4.73-.38 2 4.17 8.95-.11-.1 3.72-4.61-.08-2.01 1.58c2.52 2.2 4.59 4.83 6.82 7.3l-3.23 2.44-2.28-2.27c-5.87.09-11.75.11-17.58.81l-1.4-3.59c2.6-1.61 4.86-3.72 6.72-6.14-2.26-.08-4.52-.1-6.78-.1l.04-3.67 9.56.03-.83-3.71m-2.72 13.33c3.51-.06 7.02-.22 10.54-.37l-2.2-2.78c1.2-.73 2.18-1.74 3.03-2.84-5.06-1.4-8.21 3.01-11.37 5.99zm-116.22-11.43c9.6-.04 19.2-.44 28.79-.98.95 1.1.85 2.76 1.33 4.1-3.94.24-7.92.05-11.83.63-.85 1.52-.26 3.44-.43 5.13l11.89.01v4.1c-3.96-.03-7.92-.08-11.87.06l-.03 5.11c4.91.11 9.83.08 14.74.08l.02 4.09c-4.89.02-9.79-.01-14.68.01-.28 3.04.74 6.89-1.78 9.2-3.01 1.68-6.68.88-9.98 1.16l-1.11-4.27c2.6-.28 5.8.9 7.9-1.08.39-1.61.27-3.29.35-4.93-5.19-.13-10.38-.08-15.56-.07l.06-4.11 15.47-.09v-5.08c-4.3-.11-8.6-.08-12.9-.09l-.02-4.09 12.91-.06.08-4.89c-4.27-.2-8.54.26-12.8.3l-.55-4.24zm-61.97 31.83l.06-31.02 14.99-.01.04 30.9-4.24.07-.12-3.6-6.56.18.04 3.49-4.21-.01m4.17-27.03l.03 19.25h6.6c.19-6.41.05-12.83.07-19.24-2.23 0-4.47-.01-6.7-.01zm242.67-3.42c3.2-1.35 7.3-1.08 9.91 1.39 2.8 2.65 4.09 6.58 4.18 10.37.25 4.52-.41 9.41-3.32 13.06-3.27 4.02-10.04 4.22-13.5.35-3.3-4-4.01-9.53-3.5-14.54.46-4.16 2.26-8.69 6.23-10.63m2 4.12c-2.52 1.56-2.98 4.87-3.15 7.57-.03 3.41-.22 7.14 1.68 10.14 1.76 2.6 6.19 2.01 7.32-.91 1.65-4.56 1.63-9.81.05-14.39-.74-2.4-3.7-3.61-5.9-2.41zm21.19-3.68c3.3-1.89 7.94-1.68 10.76 1.02 2.56 2.4 3.85 5.91 4.07 9.37.35 4.8-.1 10.09-3.24 13.98-3.27 4.02-10.03 4.23-13.51.36-3.12-3.69-3.86-8.83-3.59-13.52.31-4.21 1.76-8.82 5.51-11.21m1.33 5.05c-2.07 3.37-1.74 7.55-1.55 11.34.2 2.76 1.42 6.59 4.77 6.64 3.08.26 4.73-3 4.96-5.62.64-4.84.82-10.62-3.01-14.27-1.79.33-4.22-.05-5.17 1.91zm17.64-3.56c3.42-1.23 6.88-2.56 10.58-2.47l.01 28.32-5.01-.1c-.15-7.51-.05-15.02-.07-22.53l-5.5 1.65-.01-4.87zm-165.02 11.05a78.05 78.05 0 0 0 11.22-7.5l2.98 3.33c-3.72 2.82-7.58 5.46-11.53 7.95l-2.67-3.78z" fill="#1f1f1f"/><path d="M268.84 167.05l.97-3.3 3.14.24-1.22 3.31 13.77.02.06 18.25c-4.4.4-8.81-.2-13.21-.14a103.46 103.46 0 0 0 1.13 2.92c.99.89 1.94 1.81 2.89 2.75-3.14 2.28-4.77-1.68-6.63-3.56l1.95-.75-.23-1.35c-3.97-.02-7.95.57-11.91.14v-18.24c3.1.03 6.22.17 9.29-.29m-6.56 2.47l.23 2.77c6.51 1.08 13.43.19 20.09.42l.08-3.23c-6.8.05-13.6-.01-20.4.04m.1 5.42l-.03 2.93c6.76.17 13.53.06 20.3.1l.01-3.06c-6.76-.04-13.53-.21-20.28.03m.12 5.29l-.22 2.83c6.78.65 13.66.5 20.46.06l-.18-2.92c-6.69-.02-13.37-.07-20.06.03zm-73.84-10.58c5.6-4.27 14.57-4.13 19.39 1.29 4.7 4.91 5.04 12.99 1.38 18.61-1.6 1.76 1.46 2.62 2.32 3.78l-2.07 2.89-3.82-3.08c-5.84 3.47-14.1 2.93-18.79-2.23-5.42-5.86-4.7-16.3 1.59-21.26m3.9 1.83c-6.11 3.19-7.24 12.59-2.32 17.31 3.25 3.31 8.66 3.81 12.69 1.65l-4.58-3.83 2.24-2.65 5.27 4.23c2.56-3.74 3.11-8.84.84-12.86-2.61-4.89-9.39-6.52-14.14-3.85zM91.23 308.98l3.45-1.98 4.88 6.73-3.84 2.15-4.49-6.9zm41.79-2.42l3.92.51-.97 3.9 9.33.01-.06 4.1-4.52-.07-.29 7 5.49.09-.03 3.83-5.72.17-.09 2.63 6.64 7.27-3.08 3.11-4.75-6.19c-1.83 3.48-4.28 6.6-7.28 9.14l-2.59-3.48c3.67-3.27 6.77-7.47 7.17-12.54l-6.99-.03-.03-3.96a164.75 164.75 0 0 0 7.37-.17l.03-6.69-2.23-.17-2.22 4.94-3.19-2.33c1.65-3.57 3.05-7.27 4.09-11.07zm56.03.21h4.13l-.06 7.01 8.32-.02c-.22 7.99.13 16.03-.67 23.98-.38 3.39-4.19 3.66-6.85 3.57-2.08.3-3.15-.76-3.2-3.18l1.18-.32a94.1 94.1 0 0 0-3.36-.03c-.6 1.62-1.63 3.01-2.63 4.41-1.15-1.34-2.28-2.69-3.37-4.07l-14.21 1.54c.03-1.85-1.23-4.78 1.78-4.71l.02-26.52 13.59-.09c.19 8.49-.11 16.99.16 25.47l2.2.36c2.57-5.01 2.51-10.8 2.8-16.29l-3.47-.33.04-3.81 3.49.05.11-7.02m-14.96 5.3v5.2c1.92.04 3.84.03 5.76-.03l.04-5.2-5.8.03m18.87 5.58c-.57 6.29-.03 13.14-3.52 18.73 2.21.81 5.86 1.84 7.29-.57.62-6.03.59-12.11.66-18.16-1.48-.01-2.95-.01-4.43 0m-18.81 2.92l-.06 5.33 5.86-.01-.12-5.13a154.64 154.64 0 0 0-5.68-.19m-.11 8.72l.12 5.65 5.66-.54.06-5.17-5.84.06zm139.32-22.28l5.63 4.52-2.98 3.33-5.31-4.85 2.66-3zm61.83 6.23c2.02-1.77 2.76-4.57 4.2-6.79l3.6 1.32-3.18 5.69 3.76.05-.04 3.69-6.02.14-.03 4.19 5.75.23v3.68c-1.81.35-4.34-.79-5.67.81l-.18 3.75h6.64l.05 3.8-6.63.1.07 8.09-4.07.09-.04-8.22-6.72-.05-.02-3.76 6.89-.13-.42-4.54-5.24.1.04-3.78 5.22.06c.17-1.51.19-3.04.11-4.55l-5.67.07-.04-3.8c2.53-.1 5.15.34 7.64-.24zm-25.21-4.92l15.01-.05.09 6.3c1.43.7 2 1.95 1.69 3.76l-1.76.2.02 6.67c-2.95.05-5.89-.05-8.83-.09l-1.14 2.85c3.41.22 6.83.2 10.24.13l-.02 13.22-3.35.05-.94-2.04-4.47-.04c-.15 2.43-2.28 2.23-4.15 2.24l-.08-7.82-2.62 2.48c-2.23-3.99 1.57-7.09 2.72-10.69-2.44.22-2.81-1.49-2.71-3.47 1.81-.06 3.96.13 3.97-2.32-.61-2.07-2.99-1.1-4.57-1.36l.01-3.34 4.72-.06.07-3.31-3.81-.09-.09-3.22m7.26 3.62l.09 3.02 4.19-.06-.11-3.52c-1.39.15-2.79.32-4.17.56m-.07 6.48l-.28 3.4 4.48.09c-.02-1.2-.09-2.4-.24-3.59l-3.96.1m-1.04 12.92l-.04 4.68 5.53-.07-.06-4.58-5.43-.03zM90.21 318.85l7.48-.03c-.01 5.04-.23 10.1.29 15.13 1.46 1.28 2.92 2.83 5 2.99 7.33.9 14.76.31 22.13.34l-1.27 3.95c-6.99-.15-14.02.26-20.98-.44-2.82-.17-5.11-1.94-7.01-3.88-1.4 1.58-2.79 3.18-4.14 4.82l-1.78-4.64c1.26-1.34 2.85-2.47 3.63-4.17.33-3.27.08-6.55.14-9.82l-3.49-.02v-4.23zm188.93 6.54l3.95-2.05c1.82 2.16 3.04 5.46 5.72 6.54 2.05-1.86 3.31-4.38 4.65-6.76l4.14 2.04c-1.59 2.79-3.39 5.46-5.47 7.91 4.21 2.3 8.86 3.62 13.57 4.48l-2.14 4.45c-5.23-1.15-10.38-2.9-14.9-5.83-4.8 2.78-10.02 4.72-15.4 6.05l-1.85-4.48c4.66-1.07 9.29-2.39 13.54-4.63-2.15-2.41-4.04-5.02-5.81-7.72zm42.44.25l3.88-.01c.3 5.92-.2 12.39-4.93 16.6l-3.29-2.35c4.12-3.56 4.72-9.13 4.34-14.24z" fill="#202020"/><path fill="#71a8be" d="M129.38 165.02c1.63-.54 3.4-.04 4.62 1.14.44 1.97-.74 3.88-1.15 5.78l-1.26-.09-1.56-.11 1.94-3.95c-.17-1.4-1.81-1.75-2.7-2.57l.11-.2z"/><path d="M228.33 165.08c1.88 1.79 3.67 3.69 5.15 5.84-3.14 2.67-4.63-2.27-6.66-3.96l1.51-1.88zm14.24 5.39l4.99-5.31 1.91 1.8-4.94 5.39-1.96-1.88zm-26.32 5.67l2-2.07 5.71 4.64-1.87 2.39-5.84-4.96zm67.09 12.56l1.64-1.39 4.84 6.81-2.3 1.55c-1.35-2.32-3.63-4.33-4.18-6.97zm1.77 118.4l5.08-.43 1.67 4.55h13.56l-.06 4.13c-11.23.03-22.46-.03-33.69.05l-.01-4.18c4.98-.03 9.97.1 14.96-.11l-1.51-4.01zm27.33 10.04c2.18.95 3.85 2.78 5.76 4.17l-2.95 3.4-5.37-4.89 2.56-2.68zm-65.41 5.05l18.51-.03-.02 4.9-18.52.03.03-4.9zm81.57 3.44l3.89.05.01 15.5-3.91-.03.01-15.52z" fill="#1e1e1e"/><path fill="#50b0db" d="M124.83 172.27l4.44-7.05c.89.82 2.53 1.17 2.7 2.57-.54 1.37-1.26 2.65-1.94 3.95l-5.2.53z"/><path fill="#202022" d="M154.59 170.6c5.72-5.67 16.54-5.34 21.34 1.36 4.28 5.38 3.72 13.32-.19 18.75l3.12 2.8-2.37 2.65-3.53-3.02c-5.3 2.99-12.4 3.12-17.29-.74-6.6-5.08-7-16.06-1.08-21.8m3.77 1.66c-5.56 4.01-5.59 13.43-.04 17.47 3.25 2.68 7.8 2.3 11.53.96a92.02 92.02 0 0 0-4.48-4.13l2.23-2.6 5.28 4.25c2.48-3.76 3.13-8.82.84-12.82-2.8-5.41-10.65-6.83-15.36-3.13z"/><path d="M902.82 166.86l2.78-.18.01 4.24 6.07.09-.07 2.54-6 .03.11 3.79 6.93.03.08 2.45-7.22.21.28 3.21 6.29-.02c-.28 3.3.61 6.93-.88 10-1.33.64-2.85.69-4.25 1l-.36-2.57 2.74-.47.01-5.48-3.7-.02c-.07 3.5.2 7.02-.18 10.52l-2.67.25.04-10.48-3.45-.49-.03 8.73a253.94 253.94 0 0 1-2.76-.02l.05-10.91a183.31 183.31 0 0 0 6.18-.24l-.01-3.04a355.19 355.19 0 0 1-8.01-.09l.21-2.53c2.61.01 5.22-.06 7.83-.27l-.01-3.35-3.82-.4-1.39 2.95-2.35-.93c1.61-2.52.89-7.98 5.02-7.5l-.29 3.01 2.78.06.04-4.12zm11.48 3.12l2.63-.23c.14 6.25.19 12.5-.04 18.75l-2.54-.16-.05-18.36z" fill="#747474"/><path fill="#fef6e7" d="M97.15 182.35c.24-6.21 3.84-12.59 9.95-14.6 4.03-.76 8.39-.9 12.22.79.44.27 1.3.83 1.74 1.11l-.96 1.83a81.42 81.42 0 0 0-1.47 2.96c-.74-.57-1.49-1.11-2.26-1.64-2.36-.43-4.83-.78-7.19-.17-2.8.95-4.62 3.48-6.08 5.91-2.51 7.01 4.63 14.84 11.82 12.49 5.83-1.35 8.29-8.1 6.26-13.38l-1.36-1.96 4.15-2.1 1.72.85c1.13 3.69 2.42 7.7 1.08 11.52-2.12 7.32-10.19 12.43-17.7 10.38-6.62-1.34-11.18-7.48-11.92-13.99z"/><path fill="#efeff1" d="M158.36 172.26c4.71-3.7 12.56-2.28 15.36 3.13 2.29 4 1.64 9.06-.84 12.82-1.79-1.38-3.54-2.82-5.28-4.25l-2.23 2.6a92.02 92.02 0 0 1 4.48 4.13c-3.73 1.34-8.28 1.72-11.53-.96-5.55-4.04-5.52-13.46.04-17.47z"/><path d="M192.56 171.48c4.75-2.67 11.53-1.04 14.14 3.85 2.27 4.02 1.72 9.12-.84 12.86-1.79-1.37-3.52-2.81-5.27-4.23l-2.24 2.65 4.58 3.83c-4.03 2.16-9.44 1.66-12.69-1.65-4.92-4.72-3.79-14.12 2.32-17.31zm69.72-1.96l20.4-.04-.08 3.23c-6.66-.23-13.58.66-20.09-.42l-.23-2.77zm.22 10.71l20.06-.03.18 2.92c-6.8.44-13.68.59-20.46-.06l.22-2.83zm-88.41 131.84l5.8-.03-.04 5.2-5.76.03v-5.2zm244.71 3.69c.95-1.96 3.38-1.58 5.17-1.91 3.83 3.65 3.65 9.43 3.01 14.27-.23 2.62-1.88 5.88-4.96 5.62-3.35-.05-4.57-3.88-4.77-6.64-.19-3.79-.52-7.97 1.55-11.34zm-225.84 1.89h4.43c-.07 6.05-.04 12.13-.66 18.16-1.43 2.41-5.08 1.38-7.29.57 3.49-5.59 2.95-12.44 3.52-18.73zm-2.7 69.68l7.69.06-.1 21.22-7.58-.09c-.14-7.07-.04-14.13-.01-21.19zm84.93 7.07l9.82-.06-.01 9.56c-3.25-.03-6.49-.01-9.73.07l-.08-9.57zm302.92.74l18.75-.01.01 2.54c-6.23-.04-12.46.01-18.69-.03l-.07-2.5zm-138.95 7.42l5.79-.07.09 3.82-5.97-.08.09-3.67zm8.74 5.64l5.71.12.15 3.58-6.43-.17.57-3.53z" fill="#eee"/><path fill="#81869c" d="M118.63 174.44l1.47-2.96 4.73.79 5.2-.53 1.56.11.82 1.47-6.72 1.12-1.72-.85-4.15 2.1-1.62-.23.43-1.02z"/><path fill="#e9676a" d="M103.1 178.54c1.46-2.43 3.28-4.96 6.08-5.91 2.36-.61 4.83-.26 7.19.17-.78 2.99-3.11 4.92-5.63 6.46-1.26 1.37-1.18 3.31-1.46 5.04l-6.18-5.76z"/><path fill="#a76d7c" d="M116.37 172.8l2.26 1.64-.43 1.02 1.62.23 1.36 1.96c-2.03.79-4.04 1.83-5.26 3.72l-4.37.87 2.32-3.26-3.13.28c2.52-1.54 4.85-3.47 5.63-6.46z"/><path fill="#db5352" d="M125.69 174.44l6.72-1.12c1.65 5.51 2.23 11.6-.28 16.96-2.26 5.67-7.19 10.03-12.92 11.97l-13.69-.04c-7.47-2.46-13.5-9.27-14.41-17.17-.66-3.31.13-6.65.48-9.94 1.45 2.7 3.37 5.11 5.56 7.25.74 6.51 5.3 12.65 11.92 13.99 7.51 2.05 15.58-3.06 17.7-10.38 1.34-3.82.05-7.83-1.08-11.52m-16.21 22.94c.76 1.39 3.34.78 4.75.79 1.63.19 1.68-1.44.02-1.23-1.57-.1-3.34-.37-4.77.44z"/><path d="M230.17 176.53l15.63-.02.04 4.37c-5.24.03-10.47.04-15.7-.01l.03-4.34zm253.78 221.72l9.13-.1c-1.05 3.05-2.36 6.11-4.87 8.24-1.66-2.58-3.09-5.3-4.26-8.14z" fill="#f1f1f1"/><path fill="#df5451" d="M115.92 181.37c1.22-1.89 3.23-2.93 5.26-3.72 2.03 5.28-.43 12.03-6.26 13.38-7.19 2.35-14.33-5.48-11.82-12.49 2.02 1.96 4.03 3.93 6.18 5.76 1.4.18 2.83.31 4.25.15.88-.96 1.68-1.99 2.39-3.08z"/><path fill="#ffeaed" d="M109.28 184.3c.28-1.73.2-3.67 1.46-5.04l3.13-.28-2.32 3.26 4.37-.87c-.71 1.09-1.51 2.12-2.39 3.08-1.42.16-2.85.03-4.25-.15z"/><path d="M230.15 183.63c5.22-.19 10.44-.18 15.66-.02v4.3c-5.22.03-10.44.03-15.66-.01v-4.27zm127.09 128.31l4.17-.56.11 3.52-4.19.06-.09-3.02zm-.07 6.48l3.96-.1c.15 1.19.22 2.39.24 3.59l-4.48-.09.28-3.4zm-252.22 6.1l4.98.06.35 2.79-5.39.22.06-3.07zm564.99 60.44l25.11-.02c-.24 8.81-.18 17.63.05 26.45-8.4-.03-16.8.07-25.19.02l.03-26.45m8.36.8c-1.79 3.34-5.22 5.33-7.04 8.63 2.01.3 3.42-1.25 4.89-2.28 1.42 1.3 2.82 2.62 4.2 3.97-3.01 1.05-6.1 1.85-9.21 2.52l.41 2.21c1.87-.43 3.69-.96 5.53-1.53l-.13 2.71c3.67.82 7.4 1.42 11.11 2.11l.87-1.91c-3.91-.78-7.85-1.37-11.77-2.09.75-.56 1.54-1.06 2.37-1.49 4.42-2.66 9 1.36 13.56 1.76l.98-2.3c-2.86-.48-5.67-1.17-8.45-1.98l6.05-5.43.14-2.26c-3.98.01-7.95.03-11.92-.1l1.17-2.48-2.76-.06m-4.5 18.92l-.25 2.3c5.58.79 11.11 1.88 16.66 2.87l.57-2.21c-5.64-1.12-11.32-2.01-16.98-2.96zm-57.99-13.81l4.83-.01c-.46 4.47-1.32 8.91-2.96 13.1-1.4-1.13-2.77-2.29-4.1-3.48.93-3.16 1.61-6.38 2.23-9.61z" fill="#f0f0f0"/><path fill="#1c1c1c" d="M220.88 184.27l2.87 1c-1.3 4.36-2.47 8.76-3.67 13.15l-2.96-.55 3.76-13.6z"/><path fill="#232323" d="M258.48 188.05l3.15.24c-1.34 2.74-2.32 5.7-4.1 8.21l-2.32-.9c1.24-2.45 2.47-4.92 3.27-7.55z"/><path fill="#b3625e" d="M109.48 197.38c1.43-.81 3.2-.54 4.77-.44 1.66-.21 1.61 1.42-.02 1.23-1.41-.01-3.99.6-4.75-.79z"/><path fill="#b27c77" d="M105.52 202.21l13.69.04c-4.37 1.55-9.33 1.55-13.69-.04z"/><path fill="#e4e4e4" d="M87.97 250.01l750.05-.11 154.04.15-.21 3.58c-209.63-.1-419.27 0-628.91-.06-91.59.09-183.19-.09-274.78.09l-.19-3.65z"/><path d="M368.29 307.68l3.58-1.24 3.05 5.37-3.68 1.38-2.95-5.51zm-267.7.42h22.3l-.06 3.55-7.54 4.27 8.02.09c-.17 5.65.33 11.33-.22 16.96-.72 3.37-4.88 2.5-7.41 2.73l-.64-2.81c1.59-.1 3.19-.22 4.69-.8l-.99-1.8-4.64-.05-.09 4.97c-1.3-.01-2.6-.01-3.9 0l-.19-4.93c-1.68 0-3.36-.01-5.03-.01l-.09 5.3-3.96-.09.05-19.51 7.52-.07c-1.79-1.3-5.79-1.82-3.66-4.84l-4.16.31v-3.27m6.12 3.24c1.71 1 3.36 2.24 5.32 2.72 1.81-.68 3.43-1.74 5.09-2.72-3.47-.1-6.95-.11-10.41 0m-1.76 10.47l5.09-.02-.04-2.72-5.25-.02.2 2.76m9.02-2.75l.1 2.69 4.93.08.69-2.64-5.72-.13m-9.02 5.46l-.06 3.07 5.39-.22-.35-2.79-4.98-.06m9.11.07l.11 2.98 4.59-.06 1.03-1.52-1.1-1.51-4.63.11z" fill="#212121"/><path d="M106.71 311.34c3.46-.11 6.94-.1 10.41 0-1.66.98-3.28 2.04-5.09 2.72-1.96-.48-3.61-1.72-5.32-2.72zm289.57 3.05c2.2-1.2 5.16.01 5.9 2.41 1.58 4.58 1.6 9.83-.05 14.39-1.13 2.92-5.56 3.51-7.32.91-1.9-3-1.71-6.73-1.68-10.14.17-2.7.63-6.01 3.15-7.57zm-70.65 5.93c3.16-2.98 6.31-7.39 11.37-5.99-.85 1.1-1.83 2.11-3.03 2.84l2.2 2.78-10.54.37zm352.09 70.24c3.53-.12 7.08-.16 10.62-.1-1.42 1.84-3.19 3.45-5.39 4.28-2.24-.67-3.76-2.51-5.23-4.18zm-99.56.02l18.6-.07.18 2.51-18.93.02.15-2.46zm-.09 9.23c6.17-.42 12.42-.38 18.6.01l.38 2.36c-6.32 0-12.68.42-18.97-.21l-.01-2.16zm-139.04 8.51l5.8-.11.22 3.69-6.13-.06.11-3.52z" fill="#ededed"/><path fill="#222" d="M294.31 315.74c3.76 2.25 7.54 4.45 11.17 6.9l-2.61 3.92a324.11 324.11 0 0 0-11.24-7.55l2.68-3.27z"/><path d="M104.95 321.81l-.2-2.76 5.25.02.04 2.72-5.09.02zm9.11 2.78l4.63-.11 1.1 1.51-1.03 1.52-4.59.06-.11-2.98z" fill="#ececec"/><path fill="#1d1d1d" d="M335.66 325.64l3.84.05v11.81l2.14.21.89-6.4c1.86.41 3.19 1.57 2.39 3.59-.38 2.24-.48 5.12-2.85 6.2-2.15.28-5.66.54-6.25-2.19-.45-4.41-.09-8.86-.16-13.27z"/><path fill="#242424" d="M310.51 340.52c1.33-4.32 2.42-8.7 3.46-13.1l4.27 1.26c-1.34 4.34-2.33 8.79-3.63 13.14l-4.1-1.3z"/><path fill="#eaeaea" d="M174.04 329.29l5.84-.06-.06 5.17-5.66.54-.12-5.65z"/><path d="M96.06 380.76l2.78.24-1.32 4.63 6.61.23.02 2.41c-2.43.15-5.01-.32-7.34.49-1.42 2.8-2.11 5.88-2.94 8.88l3.18.06.32-6.72 2.69.1.01 6.55 3.51-.05-.14 2.58-3.36.01-.06 4.78 4.49-.1c.35 2.85-2.39 2.76-4.36 3.13l-.22 7.93-2.61-.08-.28-7.68-6.52.75-.18-2.81 7.08-.73-.29-5.26-6.34.03c.35-4.09 1.96-7.88 3.21-11.74-.84 0-2.52-.01-3.36-.01l-.06-2.58 4.05-.06 1.43-4.98zm318.83.49l2.76-.01c-.14 10.23.27 20.48-.19 30.7-.59 4.52-6.46 3.11-9.63 3.29l-.51-3c2.38-.1 5.03.61 7.21-.69.69-10.06.05-20.2.36-30.29zm-81.11.62l3.03-.05c-.09 7.29-.31 14.65-2.34 21.7 2.2 3.17 4.97 5.89 7.39 8.89l-2.64 2.39c-2.13-2.81-4.13-5.73-6.68-8.17-3.08 3.87-7 6.94-11.34 9.28l-1.97-2.53c4.46-2.78 9.44-5.58 11.81-10.52 3.17-6.53 2.38-13.97 2.74-20.99zm333.35.46l30.68.05.05 33.58-2.32-.07-1.04-1.79c-8.02-.31-16.09-.22-24.1-.01l-.81 1.8-2.48.06c-.24-11.2-.25-22.41.02-33.62m2.81 2.63l-.03 26.45 25.19-.02c-.23-8.82-.29-17.64-.05-26.45-8.37 0-16.74-.08-25.11.02zm-283.43-2.21h18.51l-.1 2.83-9.02-.05-1.56 5.5 9.22-.12c-.31 10.28-6.6 19.33-14.89 25l-2.12-2.52c3.45-2.63 7.51-5.17 9.37-9.22-1.5-1.58-3.26-2.88-4.95-4.24l1.45-2.14a80.96 80.96 0 0 0 5.5 3.86 91.41 91.41 0 0 0 2.66-8c-2.48.03-5.01-.24-7.44.37-2.14 2.96-3.9 6.21-6.29 9l-1.64-2.33c3.44-4.47 6.19-9.48 7.55-15l-6.29-.22.04-2.72zm-138.99 8.8l3.97-.01-.22 3.71-3.64.02-.11-3.72z" fill="#6c6c6c"/><path d="M174.06 380.74l3.13.25-1.05 6.96h8.01c-.22 6.28-1.29 12.62-4.13 18.28l5.44 4.78-2.37 2.18c-1.61-1.36-2.96-3.58-5.01-4.09-2.48 2.22-4.78 4.65-7.43 6.67l-2.42-2.1c2.8-2.07 5.46-4.32 7.85-6.84-1.95-1.81-3.95-3.56-6.03-5.22l2.53-10.78-4.14-.1-.16-2.59 4.74-.28c.43-2.37.75-4.75 1.04-7.12m-.92 19.91c1.52 1.22 3.07 2.42 4.65 3.58 1.84-4.27 2.82-8.84 3.29-13.46l-5.34-.06c-.93 3.29-1.76 6.62-2.6 9.94zm45.62-8.53c4.07-3 7.37-6.82 10.07-11.07l2.3-.29c1.17 5.43 6.44 8.52 10.71 11.42l-1.63 2.62c-4.23-2.49-7.61-6.06-10.56-9.93-1.93 2.56-4.08 4.95-5.93 7.57 4.31.14 8.62.07 12.92.06l-.01 2.72-5.58-.04.22 4.59 9.27-.03-.03 2.57a485.36 485.36 0 0 0-9.35.04c-.21 3.78.37 7.65-.49 11.36-1.29 2.42-4.6 1.75-6.84 1.59l-.86-2.53 5.23-.37c.14-3.37.16-6.75-.13-10.11l-9.39.02-.02-2.49 9.47-.07.09-4.61-5.56.03-.08-2.28-3.27 2.31-1.52-2.52c-1.18 1.61-2.77 3.17-2.86 5.3-.28 5.99-.04 12-.11 18l-2.85.03-.01-15.26-3.99 3.94-.52-3.04c2.96-3.56 6.04-7.06 8.25-11.17l3.06 1.64zm367.17-11.35l3.06.05.03 2.82 14.6.02.3 2.16c-4.96.02-9.93-.03-14.88.02l.11 2.7 10.73-.04c-.11 6.12.06 12.23.12 18.35l4.87.39-.57 1.98c-10.47-.05-20.94.06-31.4-.02-1.3.01-2.42-.45-3.36-1.38 1.75-.69 3.61-.88 5.48-.96.14-6.12-.06-12.25.18-18.37l10.98-.02-.44-2.45c-4.81-.51-9.66-.02-14.48-.23l.11-2.11 14.56-.03v-2.88m-7.77 9.81l-.15 2.46 18.93-.02-.18-2.51c-6.2.03-12.4-.04-18.6.07m-.05 4.56l.07 2.5 18.69.03-.01-2.54c-6.26-.02-12.51-.07-18.75.01m-.04 4.67l.01 2.16c6.29.63 12.65.21 18.97.21l-.38-2.36c-6.18-.39-12.43-.43-18.6-.01m.11 4.41l-.13 2.71h18.86l-.12-2.7-18.61-.01zm148.19-23.09l3.04-.11-.04 10.01 9.11.25-.07 2.53-24.74.05-.24 6.24c5.82.84 11.74.2 17.61.37.14 4.99.05 9.98.13 14.97l-3.14.01c-.06-4.1-.06-8.2.06-12.29-4.88-.01-9.76.02-14.64.04-.56 4.61-2.46 8.88-4.97 12.75l-2.65-2.22c7.02-9.18 4.25-21.27 4.79-31.94l3.09.3a132.07 132.07 0 0 0-.05 9.12l12.76-.06-.05-10.02zm-539.11 33.41l.18-29.87c4.48.12 8.96.05 13.44.04l-.03 29.61-2.68-.03-.34-3.08-7.49-.03-.35 3.6-2.73-.24m3-27.21l.01 21.19 7.58.09c.17-7.07.04-14.15.1-21.22l-7.69-.06zm356.25 20.52l4.44.2c.15 3.73-.2 8.99-4.96 9.48 1.08-1.56 2.08-3.17 2.95-4.84-2.7-.34-2.4-2.78-2.43-4.84z" fill="#6f6f6f"/><path d="M207.92 389.97c3-2.63 5.39-5.82 8.07-8.74l2.47.95c-2.54 4-5.84 7.42-9.3 10.62l-1.24-2.83zm260.16-9.03l2.96.06.01 7.07 3.87.14.01 2.68-3.88.13-.02 6.81 3.8-.79-.08 2.77-3.71 1.02c.01 4.54.27 9.12-.47 13.63-2.11.54-4.26.87-6.43 1l-.13-2.92 3.96-.33.07-10.55-4.66 1.12.11-3.1 4.5-.99.04-7.67-4.19-.05-.03-2.81h4.2l.07-7.22zm-335.36 2.03l25.48-.06c.2 8.01-.22 16.03.26 24.03.31 1.91-.01 4.62 2.21 5.47.4-2.39.7-4.78.95-7.18l2.11.08c-.38 3.34.28 7.58-2.73 9.9-3.13 1.2-5.85-3.16-4.38-5.66-1.69.4-3.43.77-4.77 1.96-1.94-2.98-3.97-5.89-5.98-8.82-2.8 2.94-5 6.42-8.06 9.1-1.12-.17-1.37-1.58-2.07-2.29 3.04-2.89 5.8-6.06 8.26-9.45-2.33-3.33-4.84-6.55-7.15-9.89l2.74-1.12c2.03 2.85 4.08 5.69 6.34 8.35 1.84-3 3.6-6.05 5.26-9.16l2.51 1.44c-1.75 3.51-4.2 6.65-5.75 10.26 1.34 3.18 4.02 5.58 5.46 8.74l2.37.83c-.64-7.89-.27-15.8-.39-23.69-6.57-.01-13.15.05-19.72-.1-.6 10.12 1.46 21.22-4.4 30.23l-1.97-2.81c5.26-9.2 2.75-20.11 3.42-30.16zm343.93-.23l18.95-.03c-.54 3.07.77 7.63-2.61 9.35-2.76.66-5.62.41-8.42.49l-.53-2.52 7.95-.18.89-4.47-13.52-.05c.5 3.26-1.08 7.38.89 10.12 5.28.32 10.57-.15 15.85.14-.27 4.89-3.03 8.98-5.37 13.09a211.55 211.55 0 0 0 7.06 4.33l-1.84 2c-2.82-.97-5.1-2.98-7.65-4.46-2.24 1.79-4.62 3.4-7.08 4.87l-1.45-2.39c2.33-1.37 4.58-2.9 6.55-4.76-1.9-2.68-3.42-5.6-4.75-8.6a115.48 115.48 0 0 0 1.41-1.7l-3.55.29-.03 17.75a248.45 248.45 0 0 1-2.73-.02l-.02-33.25m7.3 15.51c1.17 2.84 2.6 5.56 4.26 8.14 2.51-2.13 3.82-5.19 4.87-8.24-3.05-.05-6.1-.02-9.13.1zm-76.98-12.88l2.93.17c-.18 7.08.05 14.16-.08 21.24l-2.81.02-.04-21.43zM247.56 408.3l3.93.01.03 3.67-4.12-.08.16-3.6z" fill="#707070"/><path d="M428.47 380.94l2.69-.07-.02 7.06 3.35.27c.33 2.27-1.61 2.58-3.32 2.96l-.02 6.27 2.55-.81.7 2.28c3.15-1.44 6.22-3.1 8.83-5.39-2.76-.11-5.52-.16-8.28-.19l-.11-1.98c3.28 0 6.58.16 9.87-.11.44-2 .19-4.07.24-6.08-2.04.04-4.12.17-5.55 1.8 1.52.56 3.59 2.34 1.66 3.96-1.23-1.13-2.51-2.17-3.72-3.3l1.24-2.25-2.04-.19-1.67-1.57c7.23-.99 14.56-.59 21.83-1.21l.21 2.21-9.27.56-.09 6.37c1.64.21 3.02-.7 4.24-1.62l-2.06-.46c1.63-1.23 2.92-3.62 5.26-3.3-.07 1.52-1.13 2.65-2 3.8l-.76-.57-.55 2.14c2.22.3 6.41-1.59 6.94 1.79l-9 .17c2.53 2.65 5.98 4.02 9.26 5.48l-1.67 1.87c-3.62-1.34-6.58-3.85-9.66-6.07l-.03 4.29-2.38.18-.34-4.55c-2.43 2.22-5.09 4.18-7.92 5.86l19.32.08-.06 15.48c-1.32-.23-2.44-.79-3.08-1.99-4.56-.03-9.12-.23-13.66.07l-.98 1.83-1.94-.39.07-14.57c-1.72-.53-3.47-.9-5.25-1.02-.31 4.3.13 8.64-.4 12.93-.68 2.53-3.69 2.53-5.79 2.39l-.63-2.58 3.95-.54c.08-3.56.09-7.13-.04-10.69l-3.95 1.21.05-2.94c1.28-.62 2.95-.69 3.87-1.89.27-2.33.12-4.68.09-7.01-1.94-.19-4.43 0-3.84-2.76l3.95-.31-.09-6.9m10.69 21.62l-.09 3.67 5.97.08-.09-3.82-5.79.07m8.55.23c-.14 1.18-.16 2.37-.2 3.57l6.22-.25-.03-3.61c-2 .02-4.02-.08-5.99.29m-8.68 5.53l-.11 3.52 6.13.06-.22-3.69-5.8.11m8.87-.12l-.57 3.53c2.14.09 4.28.14 6.43.17l-.15-3.58-5.71-.12zm-214.42-1.79l2.23-1.88 5.5 6.45-1.61 2.1-6.12-6.67zm440.32-1.73l16.98 2.96-.57 2.21c-5.55-.99-11.08-2.08-16.66-2.87l.25-2.3zm-92.3 5.83c1.37-.72 2.5.19 3.21 1.34-4.01 1.43-8 3.06-12.19 3.89l-1.32-2.09c3.47-.94 6.85-2.14 10.3-3.14z" fill="#6b6b6b"/><path d="M614.3 380.8l3.05.25-1.06 6.98 7.15.05c.03 6.11-1.11 12.19-3.57 17.8l4.82 4.13-2.03 2.37-3.9-3.69c-2.53 2.15-4.75 4.64-7.17 6.91l-2.18-2.19c2.44-2.15 4.84-4.39 6.77-7.02-1.87-1.65-3.72-3.32-5.52-5.03.95-3.4 1.64-6.86 2.28-10.33l-3.35-.26v-2.69l3.9-.15.81-7.13m1.51 10.07c-.62 3.23-1.3 6.45-2.23 9.61 1.33 1.19 2.7 2.35 4.1 3.48 1.64-4.19 2.5-8.63 2.96-13.1-1.62-.01-3.23 0-4.83.01zm-296.78-8.4l2.1-1.52c1.88 3.09 3.64 6.24 5.47 9.35l-2.91 1.6c-1.57-3.14-3.52-6.11-4.66-9.43zm47.68-1.07l2.9-.13c.46 6.02.04 12.23 2.16 18.01 1.6 5.28 4.98 9.78 9.04 13.44l-2.34 2.68c-4.71-4.88-8.36-10.79-9.83-17.47-1.71 6.84-5.34 13.07-10.41 17.97l-1.92-2.82c2.96-3.03 5.95-6.19 7.62-10.15 2.8-6.8 2.96-14.29 2.78-21.53zm283 .77l9.72.03.16 2.83-6.56.17-.03 27.65 6.49-.02-.11 3.18-9.68-.01.01-33.83zm-543.73 1.04l15.95-.01c-.07 3.52-2.59 6.07-4.74 8.57l7.61 4.78-1.69 2.17c-2.58-1.82-5.24-3.52-8.01-5.02-2.99 1.8-5.95 3.76-9.28 4.89l-1.91-1.94c5.56-2.51 11.01-5.64 14.51-10.81l-12.36-.05-.08-2.58zm397.86.36c10.27-.51 20.58-.01 30.87-.25l-.02 3.47-12.87 9.14c-.27 5.46.44 11-.46 16.41-2 3.97-7.46 2.34-11.07 2.79l-.51-3.33c2.7-.52 7 1.38 8.59-1.45.61-5.16.12-10.4.18-15.58 3.82-3.06 7.96-5.68 11.91-8.57-8.94-.03-17.89 0-26.83.01l.21-2.64zm121.7-.49l16.93-.01.04 3.08c-2.52 3.38-7.57 5.82-6.7 10.71l7.99.09-.05 2.83-7.92.09c-.16 4.22.38 8.51-.38 12.69-1.29 3.51-5.85 2.42-8.75 2.6l-.3-3 5.93-.12c.65-4.04.41-8.14.38-12.22-2.98-.01-5.95-.01-8.93 0l.08-2.93 8.74-.02c-1.01-4.94 3.36-7.71 6.28-10.81l-13.3-.05-.04-2.93zm-357.19.43l34.39-.05-.25 2.95-4.6-.19c-.41 7.93.08 15.89-.22 23.83-.03 1.56-.73 3-1.25 4.45-3.27.66-6.61.83-9.94.81l-.74-3.14c2.42.05 4.87.29 7.29-.05 1.82-.56 1.56-2.61 1.68-4.09l-.06-21.68-26.2-.02-.1-2.82zM105.7 400.66l17.36-.05-.03 2.6c-2.36 0-4.72-.01-7.08-.01-.14 2.8-.13 5.62 0 8.43a248.87 248.87 0 0 1 8.64-.06l.01 2.67-20.71-.03-.07-2.67 9.02.03a212.33 212.33 0 0 0 .06-8.37l-7.14.07-.06-2.61zm111.28 11.02l5.77-7.11 2.12 1.17-5.74 7.63-2.15-1.69zm374.48-1.45c4.12.47 8.11 1.83 11.98 3.29l-.62 2.34-12.41-4.05 1.05-1.58z" fill="#6d6d6d"/><path fill="#696969" d="M744.48 382.24l9.81-.05-.02 33.73c-3.26-.03-6.52-.01-9.77.04l.11-3.14 6.29.05-.01-27.7-6.22.12-.19-3.05z"/><path fill="#6a6a6a" d="M310.1 382.51l3 .03.08 25.17a214.05 214.05 0 0 0 9.04-6.55l.61 3.53c-4.08 2.86-8.17 5.71-12.08 8.82l-1.63-2.4c1.88-9.38.21-19.09.98-28.6z"/><path d="M348.08 382.74l11.71.04c-.27 4.18-2.05 8.02-3.35 11.95 2.53 3.13 4.35 7.47 2.73 11.44-1.21 2.48-4.43 1.96-6.67 2.43l-.46-2.96c1.68-.34 4.05.35 4.89-1.63.76-3.4-1.16-6.44-3.26-8.89l3.15-9.78-5.8-.01-.09 30.52-2.83-.08-.02-33.03zm330.22 3.02l2.76.06-1.17 2.48c3.97.13 7.94.11 11.92.1l-.14 2.26c-1.98 1.85-4.01 3.65-6.05 5.43 2.78.81 5.59 1.5 8.45 1.98l-.98 2.3c-4.56-.4-9.14-4.42-13.56-1.76-.83.43-1.62.93-2.37 1.49l11.77 2.09-.87 1.91c-3.71-.69-7.44-1.29-11.11-2.11l.13-2.71c-1.84.57-3.66 1.1-5.53 1.53l-.41-2.21c3.11-.67 6.2-1.47 9.21-2.52-1.38-1.35-2.78-2.67-4.2-3.97-1.47 1.03-2.88 2.58-4.89 2.28 1.82-3.3 5.25-5.29 7.04-8.63m-.58 4.8c1.47 1.67 2.99 3.51 5.23 4.18 2.2-.83 3.97-2.44 5.39-4.28-3.54-.06-7.09-.02-10.62.1zm-405.46 1.22l15.79.03.01 14.64c-4.18.33-8.37-.22-12.56.03l-.4 2.77h-2.8l-.04-17.47m2.93 2.62l.08 9.57c3.24-.08 6.48-.1 9.73-.07l.01-9.56c-3.28-.03-6.55-.03-9.82.06z" fill="#6e6e6e"/></svg>