<?xml version="1.0" standalone="no"?>
<!DOCTYPE svg PUBLIC "-//W3C//DTD SVG 20010904//EN"
 "http://www.w3.org/TR/2001/REC-SVG-20010904/DTD/svg10.dtd">
<svg version="1.0" xmlns="http://www.w3.org/2000/svg"
 width="1131.000000pt" height="394.000000pt" viewBox="0 0 1131.000000 394.000000"
 preserveAspectRatio="xMidYMid meet">

<g transform="translate(0.000000,394.000000) scale(0.100000,-0.100000)" stroke-width="50">

<path d="M8790 3901 c-55 -29 -138 -125 -169 -194 -34 -73 -46 -123 -33 -131
13 -8 25 10 46 65 42 116 151 219 230 219 92 0 141 -55 178 -202 18 -74 20
-101 15 -243 -12 -323 -108 -779 -242 -1150 -77 -212 -294 -620 -317 -597 -10
10 -28 80 -128 492 -56 233 -122 446 -163 526 -14 28 -42 65 -63 83 -31 28
-42 32 -72 27 -57 -9 -66 -26 -73 -129 -7 -100 -20 -134 -201 -537 -105 -232
-138 -339 -113 -360 23 -19 43 -5 51 37 8 47 73 197 191 448 50 105 102 223
117 263 29 81 34 158 12 188 -10 13 -11 23 -4 31 48 59 121 -90 203 -417 15
-57 53 -239 86 -404 40 -202 67 -311 80 -333 22 -36 65 -63 98 -63 51 0 139
119 257 345 224 428 385 1031 401 1496 7 191 -3 268 -49 378 -55 132 -119 181
-238 180 -44 0 -77 -6 -100 -18z" fill="#157efb" stroke="#157efb"/>

<path d="M2865 3716 c-96 -28 -291 -98 -364 -132 -217 -100 -410 -288 -489
-477 -23 -55 -26 -76 -26 -182 -1 -114 1 -123 28 -175 20 -38 88 -115 221
-251 193 -196 277 -303 290 -367 6 -29 2 -37 -28 -66 -47 -44 -287 -162 -367
-181 -36 -8 -109 -15 -162 -15 -132 0 -211 26 -283 92 -70 64 -89 113 -83 210
9 129 77 263 195 383 72 73 82 96 46 109 -43 17 -204 -158 -276 -299 -64 -127
-75 -272 -28 -368 51 -105 166 -183 307 -207 138 -24 359 17 516 96 112 56
204 116 226 148 65 95 1 210 -305 543 -76 84 -152 176 -169 205 -26 47 -29 62
-29 138 1 154 69 287 216 425 110 103 259 182 489 259 280 94 381 50 351 -151
-13 -83 -35 -126 -89 -174 -33 -29 -42 -43 -34 -51 14 -14 71 21 115 73 46 53
67 124 67 221 0 97 -17 139 -73 176 -33 22 -52 26 -125 29 -54 2 -106 -3 -137
-11z" fill="#157efb" stroke="#157efb"/>

<path d="M6055 3564 c-150 -11 -361 -40 -520 -70 -270 -52 -319 -72 -313 -123
2 -18 9 -26 23 -26 13 0 19 6 17 16 -1 10 7 19 20 22 41 10 460 66 573 77 171
16 570 13 653 -5 139 -29 238 -81 267 -141 14 -31 15 -37 0 -66 -41 -87 -465
-573 -631 -725 -118 -109 -240 -193 -381 -265 -103 -52 -131 -62 -180 -64 -32
-1 -63 -2 -70 -3 -7 -1 -17 -10 -23 -22 -17 -31 11 -69 50 -69 28 0 302 -62
430 -96 170 -47 318 -108 427 -177 47 -30 63 -33 81 -15 27 27 12 47 -75 96
-155 88 -252 125 -498 191 l-179 48 94 47 c245 124 442 282 715 573 149 159
292 333 336 408 69 119 7 252 -150 322 -132 59 -170 66 -401 68 -118 1 -237 1
-265 -1z" fill="#157efb" stroke="#157efb"/>

<path d="M745 3123 c-109 -103 -214 -184 -390 -302 -275 -186 -378 -300 -317
-354 26 -23 213 -137 457 -277 261 -150 300 -174 343 -211 37 -32 60 -37 69
-13 7 19 -34 63 -112 119 -53 37 -521 321 -664 402 l-55 31 70 69 c40 41 133
112 224 173 170 113 274 190 363 269 32 28 65 51 72 51 19 0 68 78 61 96 -12
30 -52 12 -121 -53z" fill="#157efb" stroke="#157efb"/>

<path d="M7353 3098 c-25 -31 -43 -80 -43 -116 0 -74 68 -108 109 -56 25 31
29 99 7 111 -8 4 -16 22 -18 38 -3 33 -36 47 -55 23z m37 -132 c0 -3 -4 -8
-10 -11 -5 -3 -10 -1 -10 4 0 6 5 11 10 11 6 0 10 -2 10 -4z" fill="#fc3142" stroke="#fc3142"/>

<path d="M10467 2983 c-4 -3 -7 -12 -7 -20 0 -20 71 -114 84 -110 6 2 35 -17
66 -42 69 -56 240 -167 402 -261 156 -92 175 -105 193 -140 24 -47 19 -58 -27
-65 -76 -12 -384 -133 -552 -217 -96 -47 -323 -195 -330 -215 -9 -22 5 -43 29
-43 12 0 40 14 61 31 62 51 213 148 284 184 97 49 389 163 461 180 35 8 78 15
95 15 64 0 81 61 43 150 -25 59 -43 73 -219 175 -176 102 -402 251 -465 307
-79 70 -104 85 -118 71z" fill="#157efb" stroke="#157efb"/>

<path d="M10028 2870 c-15 -11 -44 -61 -68 -117 -23 -54 -62 -141 -87 -193
-25 -52 -92 -205 -149 -338 -83 -193 -102 -247 -93 -258 6 -8 18 -14 25 -14
16 0 21 11 145 300 50 118 105 242 122 275 16 33 50 109 74 170 24 60 53 122
63 137 38 52 17 77 -32 38z" fill="#fc3142" stroke="#fc3142"/>

<path d="M5644 2763 c-44 -115 -194 -411 -270 -533 -31 -51 -88 -121 -143
-176 -95 -96 -115 -134 -87 -162 15 -15 19 -15 44 -2 63 36 243 297 354 514
135 265 182 369 182 411 1 34 -2 40 -21 43 -18 3 -26 -10 -59 -95z" fill="#157efb" stroke="#157efb"/>

<path d="M3412 2778 c-17 -23 -42 -77 -42 -93 0 -9 -53 -94 -119 -188 -227
-329 -335 -517 -347 -609 -5 -38 -3 -46 21 -68 22 -21 36 -25 88 -25 61 0 64
1 192 86 72 47 156 107 188 133 69 56 52 69 162 -122 42 -73 85 -138 95 -144
16 -10 7 -24 -87 -127 -232 -255 -316 -438 -298 -644 16 -185 63 -302 213
-527 151 -226 250 -328 384 -398 44 -23 64 -27 133 -27 72 0 86 3 123 28 117
77 218 306 291 662 17 83 60 317 96 520 89 497 132 705 195 936 52 191 54 195
103 249 80 89 101 162 51 181 -21 7 -32 6 -52 -7 -58 -38 -140 -156 -183 -264
-13 -33 -47 -88 -77 -122 -29 -35 -107 -140 -173 -233 -65 -94 -140 -193 -165
-220 l-45 -50 5 35 c3 19 16 79 27 133 l22 97 119 76 c132 85 148 103 123 140
-22 34 -51 30 -132 -20 l-71 -45 25 82 c53 174 107 301 154 369 25 34 24 58
-1 58 -22 0 -62 -54 -110 -150 -66 -131 -175 -245 -412 -433 -80 -64 -160
-134 -178 -154 -31 -38 -31 -38 -48 -18 -9 12 -24 24 -33 27 -9 4 -32 35 -52
70 -19 35 -47 80 -61 101 l-26 37 245 246 c135 136 245 248 245 251 0 20 -25
43 -48 43 -22 0 -68 -41 -259 -237 l-233 -238 -42 41 c-97 91 -141 73 -64 -27
l47 -60 -32 -27 c-103 -88 -320 -229 -367 -238 -30 -6 -32 -5 -32 24 0 54 108
247 287 515 184 274 218 335 208 367 -7 22 -37 27 -53 8z m799 -602 c-16 -54
-31 -99 -33 -101 -2 -1 -59 -37 -128 -80 -159 -99 -269 -172 -297 -198 -13
-11 -26 -17 -30 -13 -4 4 0 12 10 17 9 6 17 18 17 27 0 24 57 77 235 220 83
66 173 144 200 174 28 30 51 53 53 53 1 -1 -11 -46 -27 -99z m309 -127 c-28
-90 -89 -373 -155 -714 -129 -668 -145 -745 -175 -840 -40 -129 -113 -278
-152 -310 -54 -46 -128 -30 -240 52 -79 57 -245 279 -320 428 -102 200 -112
408 -28 574 64 127 234 340 354 443 49 43 336 244 336 236 0 -2 -11 -57 -25
-123 -29 -140 -29 -145 -11 -170 32 -45 117 36 259 250 83 124 170 246 173
242 2 -2 -5 -32 -16 -68z" fill="#157efb" stroke="#157efb"/>

<path d="M7214 2572 c-11 -10 -23 -30 -26 -46 -7 -38 18 -47 44 -15 28 35 12
3 -67 -126 -152 -252 -295 -574 -280 -632 7 -30 37 -45 67 -34 30 11 160 149
155 164 -7 22 -23 16 -81 -28 -33 -24 -62 -43 -64 -41 -14 15 178 418 293 616
30 52 55 100 55 108 0 49 -55 68 -96 34z" fill="#157efb" stroke="#157efb"/>
</g>
</svg>
